#N canvas 1070 416 850 600 10;
#X obj 100 20 inlet~ left;
#X obj 180 20 inlet~ right;
#X obj 100 550 outlet~ left;
#X obj 180 550 outlet~ right;
#X obj 260 20 inlet~ neural1;
#X obj 358 18 inlet~ neural2;
#X obj 451 16 inlet~ neural3;
#X obj 545 18 inlet~ neural4;
#X obj 100 60 *~ 0.5;
#X obj 180 60 *~ 0.5;
#X obj 260 60 *~ 2;
#X obj 260 90 clip~ -1 1;
#X obj 340 60 *~ 2;
#X obj 340 90 clip~ -1 1;
#X obj 420 60 *~ 2;
#X obj 420 90 clip~ -1 1;
#X obj 500 60 *~ 2;
#X obj 519 90 clip~ -1 1;
#X obj 260 120 *~ 0.5;
#X obj 260 150 +~ 0.5;
#X obj 340 120 *~ 0.5;
#X obj 340 150 +~ 0.5;
#X obj 420 120 *~ 0.5;
#X obj 420 150 +~ 0.5;
#X obj 500 120 *~ 0.5;
#X obj 500 150 +~ 0.5;
#X obj 100 180 *~;
#X obj 140 180 *~;
#X obj 180 180 *~;
#X obj 220 180 *~;
#X obj 100 210 +~;
#X obj 180 210 +~;
#X obj 100 240 lrshift~;
#X obj 180 240 lrshift~;
#X obj 100 270 *~ 0.5;
#X obj 180 270 *~ 0.5;
#X obj 100 300 +~;
#X obj 180 300 +~;
#X obj 100 330 hip~ 20;
#X obj 180 330 hip~ 20;
#X obj 100 360 lop~ 18000;
#X obj 179 353 lop~ 18000;
#X obj 340 180 -~ 0.5;
#X obj 340 210 *~ 2;
#X obj 340 240 *~ 0.9;
#X obj 101 396 +~;
#X obj 180 390 +~;
#X obj 100 420 *~ 0.8;
#X obj 180 420 *~ 0.8;
#X obj 100 450 clip~ -0.95 0.95;
#X obj 205 450 clip~ -0.95 0.95;
#X obj 100 480 hip~ 20;
#X obj 180 480 hip~ 20;
#X obj 100 510 *~ 0.95;
#X obj 180 510 *~ 0.95;
#X text 456 471 Neural spatializer that creates;
#X text 456 491 stereo "rivalry" effects controlled;
#X text 456 511 by neural network activity levels;
#X text 456 531 for dynamic spatial placement;
#X obj 340 330 *~;
#X obj 340 300 -~ 1;
#X obj 340 270 abs~;
#X connect 0 0 8 0;
#X connect 1 0 9 0;
#X connect 4 0 10 0;
#X connect 5 0 12 0;
#X connect 6 0 14 0;
#X connect 7 0 16 0;
#X connect 8 0 26 0;
#X connect 8 0 28 0;
#X connect 9 0 27 0;
#X connect 9 0 29 0;
#X connect 10 0 11 0;
#X connect 11 0 18 0;
#X connect 12 0 13 0;
#X connect 13 0 20 0;
#X connect 14 0 15 0;
#X connect 15 0 22 0;
#X connect 16 0 17 0;
#X connect 17 0 24 0;
#X connect 18 0 19 0;
#X connect 19 0 26 1;
#X connect 19 0 42 0;
#X connect 20 0 21 0;
#X connect 21 0 27 1;
#X connect 22 0 23 0;
#X connect 23 0 28 1;
#X connect 24 0 25 0;
#X connect 25 0 29 1;
#X connect 26 0 30 0;
#X connect 27 0 30 1;
#X connect 28 0 31 0;
#X connect 29 0 31 1;
#X connect 30 0 32 0;
#X connect 31 0 33 0;
#X connect 32 0 34 0;
#X connect 33 0 35 0;
#X connect 34 0 36 0;
#X connect 35 0 37 0;
#X connect 36 0 38 0;
#X connect 37 0 39 0;
#X connect 38 0 40 0;
#X connect 39 0 41 0;
#X connect 40 0 45 0;
#X connect 41 0 46 0;
#X connect 42 0 43 0;
#X connect 43 0 44 0;
#X connect 45 0 47 0;
#X connect 46 0 48 0;
#X connect 47 0 49 0;
#X connect 48 0 50 0;
#X connect 49 0 51 0;
#X connect 50 0 52 0;
#X connect 51 0 53 0;
#X connect 52 0 54 0;
#X connect 53 0 2 0;
#X connect 54 0 3 0;
#X connect 59 0 45 1;
#X connect 59 0 46 1;
#X connect 60 0 59 1;
#X connect 61 0 60 0;
