#N canvas 110 160 850 600 10;
#X obj 150 20 inlet;
#X obj 150 550 outlet;
#X obj 331 21 inlet_metro_speed;
#X obj 339 49 s \$0-metro-speed;
#X obj 446 20 inlet_mutation_rate;
#X obj 450 50 s \$0-mutation-rate;
#X obj 150 50 loadbang;
#X obj 150 80 metro 5000;
#X obj 150 110 t b b;
#X obj 150 200 random 16;
#X obj 150 230 t f f;
#X obj 150 260 & 1;
#X obj 190 260 & 2;
#X obj 230 260 & 4;
#X obj 270 260 & 8;
#X obj 150 290 != 0;
#X obj 190 290 != 0;
#X obj 230 290 != 0;
#X obj 270 290 != 0;
#X obj 150 320 pack f f f f;
#X obj 150 350 route 0 1 2 3;
#X obj 150 380 sel 1;
#X obj 190 380 sel 1;
#X obj 230 380 sel 1;
#X obj 270 380 sel 1;
#X msg 150 410 1;
#X msg 190 410 2;
#X msg 230 410 3;
#X msg 270 410 4;
#X obj 150 440 t f;
#X obj 150 470 change;
#X obj 150 500 t f;
#X obj 570 20 inlet_pattern_length;
#X obj 568 50 s \$0-pattern-length;
#X obj 150 170 random 16;
#X obj 237 110 r \$0-mutation-rate;
#X obj 350 80 r \$0-metro-speed;
#X obj 364 110 change;
#X obj 350 140 s \$0-current-speed;
#X obj 150 140 r \$0-current-speed;
#X obj 410 170 r \$0-pattern-length;
#X obj 269 140 / 127;
#X obj 250 170 * 15;
#X obj 250 200 + 1;
#X obj 250 230 change;
#X text 580 80 DNA-based rhythm generator;
#X text 580 100 that "mutates" patterns over time;
#X text 580 120 using genetic mutations and selection;
#X text 580 140 This sequencer generates rhythmic patterns;
#X text 580 160 The patterns evolve over time based on mutation rates;
#X text 580 180 and selection criteria, creating unique variations;
#X text 580 200 Users can control the mutation rate and pattern length;
#X text 580 220 to influence the generated rhythms.
#X connect 2 0 3 0;
#X connect 3 0 4 0;
#X connect 4 0 5 0;
#X connect 6 0 7 0;
#X connect 7 0 8 0;
#X connect 8 0 34 0;
#X connect 8 1 9 0;
#X connect 9 0 10 0;
#X connect 10 0 11 0;
#X connect 10 1 12 0;
#X connect 10 1 13 0;
#X connect 10 1 14 0;
#X connect 11 0 15 0;
#X connect 12 0 16 0;
#X connect 13 0 17 0;
#X connect 14 0 18 0;
#X connect 15 0 19 0;
#X connect 16 0 19 1;
#X connect 17 0 19 2;
#X connect 18 0 19 3;
#X connect 19 0 20 0;
#X connect 20 0 21 0;
#X connect 20 1 22 0;
#X connect 20 2 23 0;
#X connect 20 3 24 0;
#X connect 21 0 25 0;
#X connect 22 0 26 0;
#X connect 23 0 27 0;
#X connect 24 0 28 0;
#X connect 25 0 29 0;
#X connect 26 0 29 0;
#X connect 27 0 29 0;
#X connect 28 0 29 0;
#X connect 29 0 30 0;
#X connect 30 0 31 0;
#X connect 31 0 1 0;
#X connect 32 0 33 0;
#X connect 34 0 10 0;
#X connect 35 0 41 0;
#X connect 36 0 37 0;
#X connect 37 0 38 0;
#X connect 39 0 7 1;
; ---- Example connection for trigger 1 ----
; This example demonstrates how to connect the sequencer outlet to a noise generator.
; The sequencer outlet is connected to a line~ object, which is then connected to a multiplier (*~) 
; and finally to a noise~ object to generate noise based on the sequencer's output. 
; and finally to a noise~ object to generate noise based on the sequencer's output.
#X connect <sequencer-outlet-1> 0 <line~ for noise~1> 0;
#X connect <line~ for noise~1> 0 <*~ for noise~1> 0;
#X connect <*~ for noise~1> 0 <noise~1> 0;
#X connect 44 0 9 1;