#N canvas 0 22 850 500 10;
#X obj 244 39 inlet;
#X obj 244 82 trigger bang bang;
#X obj 244 127 i \$1;
#X obj 324 127 i \$2;
#X obj 244 219 until;
#X obj 244 247 f;
#X obj 244 173 trigger float float;
#X obj 275 247 + 1;
#X obj 244 293 mod;
#X msg 307 293 set 0;
#X obj 244 341 sel 0;
#X obj 244 373 outlet;
#X obj 307 341 outlet;
#X text 412 39 Euclidean rhythm generator;
#X text 412 60 Args: steps fills;
#X text 412 82 Default: 16 5;
#X obj 324 198 / \$1;
#X obj 324 173 * 100;
#X obj 244 314 < 0;
#X obj 89 27 loadbang;
#X obj 89 59 trigger bang bang;
#X msg 90 104 16;
#X msg 153 104 5;
#X connect 0 0 1 0;
#X connect 1 0 2 0;
#X connect 1 1 3 0;
#X connect 2 0 6 0;
#X connect 3 0 17 0;
#X connect 4 0 5 0;
#X connect 5 0 7 0;
#X connect 5 0 8 0;
#X connect 6 0 4 0;
#X connect 6 1 8 1;
#X connect 6 1 9 0;
#X connect 7 0 5 1;
#X connect 8 0 18 0;
#X connect 9 0 5 1;
#X connect 10 0 11 0;
#X connect 10 1 12 0;
#X connect 16 0 18 1;
#X connect 17 0 16 0;
#X connect 18 0 10 0;
#X connect 19 0 20 0;
#X connect 20 0 21 0;
#X connect 20 1 22 0;
#X connect 21 0 2 1;
#X connect 22 0 3 1;