#N canvas 1070 445 850 500 10;
#X obj 100 20 inlet;
#X obj 99 467 outlet~;
#X obj 100 80 loadbang;
#X msg 100 110 0.1;
#X obj 100 140 t a a;
#X obj 172 81 loadbang;
#X msg 150 110 -0.8;
#X obj 240 20 inlet value;
#X obj 320 20 inlet c;
#X obj 240 50 s \$0-x-value;
#X obj 320 50 s \$0-c-value;
#X obj 100 170 expr~ $v1*$v1 + $v2;
#X obj 293 152 s \$0-x-value;
#X obj 100 200 clip~ -2 2;
#X obj 100 230 expr~ tanh($v1);
#X obj 100 260 *~ 0.5;
#X obj 100 290 +~ 0.5;
#X obj 100 320 *~ 0.9;
#X obj 100 350 +~ 0.05;
#X obj 100 380 phasor~;
#X obj 100 410 *~ 2;
#X obj 100 440 -~ 1;
#X obj 279 179 r \$0-c-value;
#X obj 235 200 r \$0-x-value;
#X obj 235 260 s \$0-current-x;
#X text 380 20 Fractal LFO using Mandelbrot/Julia formula;
#X text 380 40 x = x^2 + c with audio rate calculation;
#X obj 235 230 snapshot~;
#X obj 320 80 metro 10;
#X connect 0 0 3 0;
#X connect 2 0 3 0;
#X connect 3 0 4 0;
#X connect 4 0 11 0;
#X connect 4 1 12 0;
#X connect 5 0 6 0;
#X connect 7 0 9 0;
#X connect 8 0 10 0;
#X connect 11 0 13 0;
#X connect 13 0 14 0;
#X connect 14 0 15 0;
#X connect 15 0 16 0;
#X connect 16 0 17 0;
#X connect 17 0 18 0;
#X connect 18 0 19 0;
#X connect 19 0 20 0;
#X connect 20 0 21 0;
#X connect 21 0 1 0;
#X connect 22 0 11 1;
#X connect 23 0 27 0;
#X connect 27 0 24 0;
#X connect 28 0 27 0;
