#N canvas 1070 474 850 500 10;
#X obj 188 30 inlet~;
#X obj 188 425 outlet~;
#X obj 94 81 delwrite~ \$0-grainbuf 1000;
#X obj 188 394 *~;
#X obj 239 30 inlet;
#X obj 281 59 t b b;
#X obj 241 103 random 950;
#X obj 281 126 + 20;
#X obj 314 85 random 200;
#X obj 314 126 + 50;
#X obj 281 155 pack f f;
#X msg 281 184 \$1 \$2;
#X obj 281 213 line~;
#X obj 207 244 delread~ \$0-grainbuf;
#X obj 215 317 vline~;
#X msg 215 288 1 5 0;
#X obj 403 174 - 10;
#X obj 491 240 inlet pitch;
#X obj 434 271 mtof;
#X obj 478 309 / 261.6;
#X obj 188 353 *~;
#X obj 188 282 *~;
#X obj 425 346 sig~;
#X text 574 25 Granular cloud processor;
#X text 574 47 1: Audio input;
#X text 574 69 2: Trigger grain;
#X text 574 91 3: Pitch control (MIDI note);
#X obj 215 213 r \$0-grain-duration;
#X obj 112 233 random 20;
#X obj 215 265 + 30;
#X obj 498 11 loadbang;
#X obj 465 46 metro 50;
#X obj 465 75 s \$0-autotrigger;
#X obj 390 26 r \$0-autotrigger;
#X obj 281 30 r \$0-autotrigger;
#X connect 0 0 2 0;
#X connect 3 0 1 0;
#X connect 4 0 5 0;
#X connect 5 0 6 0;
#X connect 5 1 8 0;
#X connect 6 0 7 0;
#X connect 7 0 10 0;
#X connect 8 0 9 0;
#X connect 8 0 16 0;
#X connect 9 0 10 1;
#X connect 10 0 11 0;
#X connect 11 0 12 0;
#X connect 12 0 13 0;
#X connect 13 0 21 0;
#X connect 14 0 3 1;
#X connect 15 0 14 0;
#X connect 16 0 15 0;
#X connect 17 0 18 0;
#X connect 18 0 19 0;
#X connect 19 0 22 0;
#X connect 20 0 3 0;
#X connect 21 0 20 0;
#X connect 22 0 21 1;
#X connect 27 0 28 0;
#X connect 28 0 29 0;
#X connect 29 0 15 0;
#X connect 30 0 31 0;
#X connect 31 0 32 0;
#X connect 33 0 5 0;
