#N canvas 1070 503 850 500 10;
#X obj 201 55 inlet;
#X obj 201 375 outlet~;
#X obj 201 257 expr~ $v1 * $v2 * (1 - $v1);
#X obj 201 210 sig~;
#X obj 201 113 clip 0.1 0.9;
#X obj 201 84 f 0.5;
#X obj 201 288 delwrite~ \$0-chaos 5;
#X obj 133 318 delread~ \$0-chaos 1;
#X obj 201 147 t a a;
#X obj 277 178 snapshot~;
#X obj 277 210 s \$0-x-value;
#X obj 279 147 metro 10;
#X obj 341 286 r \$0-r-value;
#X obj 329 55 inlet r;
#X obj 329 84 f 3.9;
#X obj 329 113 clip 3.5 3.99;
#X obj 360 143 s \$0-r-value;
#X obj 121 147 loadbang;
#X msg 121 178 start;
#X obj 260 319 sig~;
#X connect 0 0 5 0;
#X connect 2 0 6 0;
#X connect 3 0 2 0;
#X connect 4 0 8 0;
#X connect 5 0 4 0;
#X connect 7 0 1 0;
#X connect 8 0 3 0;
#X connect 8 1 9 0;
#X connect 9 0 10 0;
#X connect 11 0 9 0;
#X connect 12 0 19 0;
#X connect 13 0 14 0;
#X connect 14 0 15 0;
#X connect 15 0 16 0;
#X connect 17 0 18 0;
#X connect 18 0 11 0;
#X connect 19 0 2 1;
