#N canvas 1070 532 850 500 10;
#X obj 144 37 inlet;
#X obj 144 443 outlet;
#X obj 312 37 inlet;
#X obj 144 82 metro 500;
#X obj 144 123 random 100;
#X obj 144 229 sel 0 1 2 3 4;
#X obj 144 283 random 100;
#X obj 144 322 sel 0 1 2 3 4;
#X msg 106 363 60;
#X msg 144 363 64;
#X msg 182 363 67;
#X msg 220 363 72;
#X msg 258 363 76;
#X obj 312 82 / 127;
#X obj 312 113 * 500;
#X obj 312 145 change;
#X obj 144 403 mtof;
#X text 353 37 Markov chain melody generator;
#X text 353 59 0-5 note states with probabilistic transitions;
#X obj 144 169 / 20;
#X obj 144 199 int;
#X text 353 82 CC input: tempo control (0-127);
#X connect 0 0 3 0;
#X connect 2 0 13 0;
#X connect 3 0 4 0;
#X connect 4 0 19 0;
#X connect 5 0 6 0;
#X connect 5 1 6 0;
#X connect 5 2 6 0;
#X connect 5 3 6 0;
#X connect 5 4 6 0;
#X connect 6 0 7 0;
#X connect 7 0 8 0;
#X connect 7 1 9 0;
#X connect 7 2 10 0;
#X connect 7 3 11 0;
#X connect 7 4 12 0;
#X connect 8 0 16 0;
#X connect 9 0 16 0;
#X connect 10 0 16 0;
#X connect 11 0 16 0;
#X connect 12 0 16 0;
#X connect 13 0 14 0;
#X connect 14 0 15 0;
#X connect 15 0 3 1;
#X connect 16 0 1 0;
#X connect 19 0 20 0;
#X connect 20 0 5 0;
