#N canvas 382 407 850 500 10;
#X obj 132 120 inlet~ sig1;
#X obj 212 120 inlet~ sig2;
#X obj 312 123 inlet~ feedback;
#X obj 417 122 inlet threshold;
#X obj 132 186 *~ 0.6;
#X obj 212 186 *~ 0.3;
#X obj 273 186 *~ 0.7;
#X obj 132 228 +~;
#X obj 132 282 threshold~ 0.5;
#X obj 132 314 clip~ -0.5 0.5;
#X obj 132 353 *~ 0.95;
#X obj 132 390 outlet~;
#X obj 350 180 s \$0-threshold;
#X obj 132 248 +~;
#X obj 183 21 inlet feedback_gain;
#X obj 183 47 s \$0-feedback-gain;
#X obj 335 13 inlet threshold_value;
#X obj 358 54 s \$0-threshold-value;
#X text 16 87 Neural unit with configurable;
#X text 16 103 threshold;
#X obj 109 410 loadbang;
#X msg 109 440 0.5;
#X obj 184 410 loadbang;
#X msg 184 440 0.3;
#X obj 485 15 inlet decay;
#X obj 499 52 s \$0-decay;
#X obj 300 353 r \$0-decay;
#X obj 468 182 r \$0-decay-value;
#X obj 260 410 loadbang;
#X msg 260 440 0.95;
#X connect 0 0 4 0;
#X connect 1 0 5 0;
#X connect 2 0 6 0;
#X connect 3 0 12 0;
#X connect 4 0 7 0;
#X connect 5 0 7 1;
#X connect 6 0 13 1;
#X connect 7 0 13 0;
#X connect 8 0 9 0;
#X connect 9 0 10 0;
#X connect 10 0 11 0;
#X connect 13 0 8 0;
#X connect 14 0 15 0;
#X connect 16 0 17 0;
#X connect 20 0 21 0;
#X connect 21 0 8 1;
#X connect 22 0 23 0;
#X connect 23 0 6 1;
#X connect 24 0 25 0;
#X connect 26 0 10 1;
#X connect 27 0 10 1;
#X connect 28 0 29 0;
#X connect 29 0 10 1;
