#N canvas 326 381 850 500 10;
#X obj 132 120 inlet~ sig1;
#X obj 212 120 inlet~ sig2;
#X obj 301 119 inlet~ feedback;
#X obj 421 121 inlet threshold;
#X obj 132 186 *~ 0.4;
#X obj 212 186 *~ 0.6;
#X obj 273 186 *~ 0.8;
#X obj 132 228 +~;
#X obj 132 282 threshold~ 0.4;
#X obj 132 314 clip~ -0.7 0.7;
#X obj 257 367 *~ 0.98;
#X obj 132 420 outlet~;
#X obj 350 180 s \$0-threshold;
#X obj 132 248 +~;
#X obj 183 21 inlet feedback_gain;
#X obj 183 47 s \$0-feedback-gain;
#X obj 323 15 inlet threshold_value;
#X obj 326 59 s \$0-threshold-value;
#X text 16 87 Self-oscillating neural unit;
#X text 16 103 with internal delay feedback;
#X obj 109 460 loadbang;
#X msg 109 490 0.4;
#X obj 184 460 loadbang;
#X msg 184 490 0.8;
#X obj 481 7 inlet decay;
#X obj 511 52 s \$0-decay;
#X obj 294 274 r \$0-decay;
#X obj 467 181 r \$0-decay-value;
#X obj 260 460 loadbang;
#X msg 260 490 0.98;
#X obj 132 390 delwrite~ \$0-self-osc 50;
#X obj 400 320 delread~ \$0-self-osc 50;
#X obj 400 350 *~ 0.3;
#X obj 132 353 throw~ \$0-osc-out;
#X obj 400 290 catch~ \$0-osc-out;
#X connect 0 0 4 0;
#X connect 1 0 5 0;
#X connect 2 0 6 0;
#X connect 3 0 12 0;
#X connect 4 0 7 0;
#X connect 5 0 7 1;
#X connect 6 0 13 1;
#X connect 7 0 13 0;
#X connect 8 0 9 0;
#X connect 9 0 10 0;
#X connect 10 0 30 0;
#X connect 10 0 33 0;
#X connect 13 0 8 0;
#X connect 14 0 15 0;
#X connect 16 0 17 0;
#X connect 20 0 21 0;
#X connect 21 0 8 1;
#X connect 22 0 23 0;
#X connect 23 0 6 1;
#X connect 24 0 25 0;
#X connect 26 0 10 1;
#X connect 27 0 10 1;
#X connect 28 0 29 0;
#X connect 29 0 10 1;
#X connect 31 0 32 0;
#X connect 32 0 13 1;
#X connect 34 0 31 0;
