#N canvas 1070 552 850 500 10;
#X obj 100 20 inlet;
#X obj 99 465 outlet;
#X obj 250 20 inlet;
#X obj 100 50 t b b;
#X obj 100 80 random 100;
#X obj 100 110 / 100;
#X obj 100 140 t f f f;
#X obj 100 170 < 0.2;
#X obj 150 170 < 0.7;
#X obj 200 170 >= 0.7;
#X obj 100 200 sel 1;
#X obj 150 200 sel 1;
#X obj 262 200 sel 1;
#X msg 100 230 1;
#X msg 150 230 2;
#X msg 200 230 3;
#X obj 100 260 t f;
#X obj 99 284 sel 1 2 3;
#X obj 250 50 route 1 2 3;
#X obj 191 80 s \$0-prob1;
#X obj 261 79 s \$0-prob2;
#X obj 332 79 s \$0-prob3;
#X obj 99 335 f;
#X obj 129 335 f;
#X obj 159 335 f;
#X obj 189 335 f;
#X obj 99 365 route 1 2 3 4;
#X obj 41 391 random 4;
#X obj 103 391 random 6;
#X obj 173 389 random 5;
#X obj 237 396 random 3;
#X obj 99 425 + 60;
#X obj 129 425 + 67;
#X obj 159 425 + 72;
#X obj 189 425 + 60;
#X obj 400 20 inlet values;
#X obj 400 50 route 1 2 3 4;
#X obj 400 80 s \$0-val1;
#X obj 475 79 s \$0-val2;
#X obj 558 79 s \$0-val3;
#X obj 635 74 s \$0-val4;
#X obj 190 200 r \$0-val4;
#X obj 218 289 r \$0-val3;
#X obj 129 305 r \$0-val2;
#X obj 57 304 r \$0-val1;
#X obj 483 140 r \$0-prob3;
#X obj 385 140 r \$0-prob2;
#X obj 300 140 r \$0-prob1;
#X obj 283 170 s \$0-prob1-val;
#X obj 381 170 s \$0-prob2-val;
#X obj 471 172 s \$0-prob3-val;
#X obj 141 109 r \$0-prob1-val;
#X obj 230 109 r \$0-prob2-val;
#X obj 320 110 r \$0-prob3-val;
#X text 603 9 Probabilistic sequence generator;
#X text 603 29 with Markov chain transitions;
#X text 603 49 and customizable note pools;
#X connect 0 0 3 0;
#X connect 2 0 18 0;
#X connect 3 0 4 0;
#X connect 4 0 5 0;
#X connect 5 0 6 0;
#X connect 6 0 7 0;
#X connect 6 1 8 0;
#X connect 6 2 9 0;
#X connect 7 0 10 0;
#X connect 8 0 11 0;
#X connect 9 0 12 0;
#X connect 10 0 13 0;
#X connect 11 0 14 0;
#X connect 12 0 15 0;
#X connect 13 0 16 0;
#X connect 14 0 16 0;
#X connect 15 0 16 0;
#X connect 16 0 17 0;
#X connect 17 0 22 0;
#X connect 17 1 23 0;
#X connect 17 2 24 0;
#X connect 18 0 19 0;
#X connect 18 1 20 0;
#X connect 18 2 21 0;
#X connect 22 0 27 0;
#X connect 23 0 28 0;
#X connect 24 0 29 0;
#X connect 25 0 30 0;
#X connect 26 0 31 0;
#X connect 26 1 32 0;
#X connect 26 2 33 0;
#X connect 26 3 34 0;
#X connect 27 0 31 0;
#X connect 28 0 32 0;
#X connect 29 0 33 0;
#X connect 30 0 34 0;
#X connect 31 0 1 0;
#X connect 32 0 1 0;
#X connect 33 0 1 0;
#X connect 34 0 1 0;
#X connect 35 0 36 0;
#X connect 36 0 37 0;
#X connect 36 1 38 0;
#X connect 36 2 39 0;
#X connect 36 3 40 0;
#X connect 41 0 25 0;
#X connect 42 0 24 1;
#X connect 43 0 23 1;
#X connect 44 0 22 1;
#X connect 45 0 50 0;
#X connect 46 0 49 0;
#X connect 47 0 48 0;
#X connect 51 0 7 1;
#X connect 52 0 8 1;
#X connect 53 0 9 1;
