#N canvas 100 100 450 350 10;
#X obj 100 20 inlet;
#X obj 100 300 outlet~;
#X obj 180 20 inlet gain;
#X obj 180 50 clip 0 1;
#X obj 100 50 trigger bang;
#X obj 100 90 metro 1;
#X obj 100 140 noise~;
#X obj 100 200 *~;
#X obj 100 230 line~;
#X obj 100 170 *~ 1;
#X obj 230 170 pack 0 50;
#X text 250 20 Safe noise generator with amplitude control;
#X text 250 40 - Takes a bang trigger input and outputs noise~;
#X text 250 60 - Handles amplitude with line~ envelope;
#X text 250 80 - Prevents "noise~: no method for 'bang'" errors;
#X connect 0 0 4 0;
#X connect 2 0 3 0;
#X connect 3 0 10 0;
#X connect 4 0 5 0;
#X connect 5 0 6 0;
#X connect 6 0 9 0;
#X connect 7 0 1 0;
#X connect 8 0 7 1;
#X connect 9 0 7 0;
#X connect 10 0 8 0;