#N canvas 208 233 850 600 10;
#X obj 100 20 inlet;
#X obj 100 550 outlet~;
#X obj 100 520 s~ ambient-ch1-out~;  ; Send to other instruments for cross-feedback
#X obj 137 14 inlet feedback_gain;
#X obj 260 6 inlet pitch_control;
#X obj 325 27 inlet threshold_ctrl;
#X obj 463 25 inlet~ neural;
#X obj 100 80 t b b;
#X obj 180 50 / 127;
#X obj 180 80 * 0.9; ; Control-rate multiplier for MIDI scaling
#X obj 180 110 s \$0-feedback-gain;
#X obj 260 50 s \$0-pitch-control;
#X obj 340 50 / 127;
#X obj 340 80 * 0.7;
#X obj 340 110 + 0.2;
#X obj 340 140 s \$0-threshold-value;
#X obj 100 140 probseq;
#X obj 100 170 mtof;
#X obj 100 200 osc~;
#X obj 180 200 phasor~;
#X obj 180 230 -~ 0.5;
#X obj 180 260 *~ 0.5;
#X obj 100 290 *~;
#X obj 100 320 +~;
#X obj 180 320 *~ 0.8;
#X obj 180 350 +~;
#X obj 100 380 +~;
#X obj 100 410 *~ 0.6;
#X obj 100 440 neuron_osc;
#X obj 150 470 r \$0-feedback-gain;
#X obj 220 470 r \$0-threshold-value;
#X obj 100 500 granular_cloud;
#X obj 260 140 r~ ch4-out~;
#X obj 320 140 r~ ch3-out~;
#X obj 260 170 *~ 0.4;
#X obj 320 170 *~ 0.3;
#X obj 180 170 fractal_lfo;
#X obj 558 22 inlet fractal;
#X obj 500 50 sel 1;
#X obj 500 80 s \$0-fractal-mode;
#X obj 500 110 r \$0-fractal-mode;
#X obj 659 20 inlet dna_mutation;
#X obj 580 50 / 127;
#X obj 664 86 * 100;
#X obj 653 110 s \$0-dna-mutation;
#X obj 420 50 *~ 0.8;
#X obj 420 80 clip~ -0.8 0.8;
#X obj 420 110 *~ 0.4;
#X obj 420 140 +~ 0.5;
#X obj 420 170 *~;
#X obj 500 170 r \$0-dna-mutation;
#X obj 420 200 s~ \$0-cloud-density;
#X obj 529 353 r~ \$0-cloud-density;
#X obj 450 380 *~ 0.6;
#X obj 450 410 +~ 0.3;
#X obj 400 350 r~ inhibit_ambient;
#X obj 400 380 *~ 0.5;
#X obj 400 410 *~ -1;
#X obj 400 440 +~ 1;
#X obj 400 470 *~;
#X obj 400 500 s~ \$0-gate;
#X obj 150 410 r~ \$0-gate;
#X obj 150 440 *~ 0.9; ; Signal multiplier for gate
#X text 620 140 Advanced ambient generator;
#X text 620 160 with fractal oscillators;
#X text 620 180 neural gating/modulation;
#X text 620 200 and probability sequencers;
#X connect 0 0 6 0;
#X connect 2 0 7 0;
#X connect 3 0 10 0;
#X connect 4 0 11 0;
#X connect 5 0 44 0;
#X connect 6 0 15 0;
#X connect 6 1 15 0;
#X connect 7 0 8 0;
#X connect 8 0 9 0;
#X connect 11 0 12 0;
#X connect 12 0 13 0;
#X connect 13 0 14 0;
#X connect 15 0 16 0;
#X connect 16 0 17 0;
#X connect 16 0 18 0;
#X connect 17 0 21 0;
#X connect 18 0 19 0;
#X connect 19 0 20 0;
#X connect 20 0 21 1;
#X connect 21 0 22 0;
#X connect 22 0 25 0;
#X connect 23 0 24 0;
#X connect 24 0 25 1;
#X connect 25 0 26 0;
#X connect 26 0 27 0;
#X connect 27 0 30 0;
#X connect 28 0 27 2;
#X connect 29 0 27 3;
#X connect 30 0 1 0;
#X connect 30 0 3 0;  ; Connect to the send object too
#X connect 31 0 33 0;
#X connect 32 0 34 0;
#X connect 33 0 22 1;
#X connect 34 0 24 0;
#X connect 35 0 23 0;
#X connect 36 0 37 0;
#X connect 37 0 38 0;
#X connect 39 0 35 0;
#X connect 40 0 41 0;
#X connect 41 0 42 0;
#X connect 42 0 43 0;
#X connect 44 0 45 0;
#X connect 45 0 46 0;
#X connect 46 0 47 0;
#X connect 47 0 48 0;
#X connect 48 0 50 0;
#X connect 49 0 48 1;
#X connect 51 0 52 0;
#X connect 52 0 53 0;
#X connect 53 0 30 2;
#X connect 54 0 55 0;
#X connect 55 0 56 0;
#X connect 56 0 57 0;
#X connect 57 0 58 0;
#X connect 58 0 59 0;
#X connect 60 0 61 0;
#X connect 62 0 63 0; ; Connect gate receive to signal multiplier (Added missing connection)
#X connect 63 0 27 1; ; Connect signal multiplier to +~ inlet (Fixed)
