#N canvas 0 22 850 600 10;
#X obj 100 50 inlet;
#X obj 100 500 outlet~;
#X obj 400 50 inlet feedback_gain;
#X obj 480 50 inlet pitch_control;
#X obj 100 100 markov_seq;
#X obj 100 140 t f f;
#X obj 130 170 / 127;
#X obj 130 200 * 0.9;
#X obj 130 230 + 0.05;
#X obj 100 280 osc~;
#X obj 180 280 phasor~;
#X obj 180 310 -~ 0.5;
#X obj 180 340 *~ 0.5;
#X obj 100 370 *~;
#X obj 400 100 / 127;
#X obj 400 130 * 0.95;
#X obj 400 160 s \$0-feedback-gain;
#X obj 480 100 s \$0-pitch-control;
#X obj 250 50 inlet tempo;
#X obj 560 50 inlet threshold_ctrl;
#X obj 560 100 / 127;
#X obj 560 130 * 0.7;
#X obj 560 160 + 0.2;
#X obj 560 190 s \$0-threshold-value;
#X obj 100 440 neuron;
#X obj 150 410 r \$0-feedback-gain;
#X obj 200 410 r \$0-threshold-value;
#X text 620 50 Ambient sound generator with;
#X text 620 70 with neural control and granular cloud;
#X obj 100 470 granular_cloud;
#X obj 400 200 r~ ch4-out~;
#X obj 480 200 r~ ch3-out~;
#X obj 100 230 mtof;
#X connect 0 0 4 0;
#X connect 2 0 14 0;
#X connect 3 0 17 0;
#X connect 4 0 5 0;
#X connect 5 0 32 0;
#X connect 5 1 6 0;
#X connect 6 0 7 0;
#X connect 7 0 8 0;
#X connect 8 0 13 1;
#X connect 9 0 13 0;
#X connect 10 0 11 0;
#X connect 11 0 12 0;
#X connect 12 0 13 1;
#X connect 13 0 24 0;
#X connect 14 0 15 0;
#X connect 15 0 16 0;
#X connect 18 0 4 1;
#X connect 19 0 20 0;
#X connect 20 0 21 0;
#X connect 21 0 22 0;
#X connect 22 0 23 0;
#X connect 24 0 29 0;
#X connect 25 0 24 2;
#X connect 26 0 24 3;
#X connect 29 0 1 0;
#X connect 30 0 24 0;
#X connect 31 0 24 1;
#X connect 32 0 9 0;
#X connect 32 0 10 0;