#N canvas 200 200 700 500 10;
#X obj 50 50 loadbang;
#X obj 50 80 delay 200;
#X obj 50 350 dac~;
#X obj 50 140 hradio 15 1 0 4 empty empty Driver 0 -8 0 10 #fcfcfc #000000 #000000 0;
#X obj 300 140 hradio 15 1 0 4 empty empty Buffer_Size 0 -8 0 10 #fcfcfc #000000 #000000 2;
#X msg 50 170 \; pd audio-driver \$1;
#X msg 300 170 \; pd audio-blocksize \$1;
#X obj 300 110 loadbang;
#X msg 300 200 256;
#X obj 50 230 tgl 15 0 empty empty DSP_On 17 7 0 10 #fcfcfc #000000 #000000 0 1;
#X msg 50 260 \; pd dsp \$1;
#X msg 50 110 2;
#X text 125 140 0:MMIO 1:DirectSound 2:ASIO 3:CoreAudio;
#X text 440 140 0:64 1:128 2:256 3:512;
#X obj 300 290 nbx 5 14 -1e+37 1e+37 0 0 empty empty Sample_Rate 0 -8 0 10 #fcfcfc #000000 #000000 0 256;
#X obj 300 320 select 44100 48000;
#X msg 300 350 \; pd audio-samplerate 44100;
#X msg 390 350 \; pd audio-samplerate 48000;
#X obj 300 260 loadbang;
#X msg 300 380 44100;
#X text 50 20 AUDIO CONFIGURATION - Use this to fix PortAudio issues;
#X connect 0 0 1 0;
#X connect 1 0 11 0;
#X connect 3 0 5 0;
#X connect 4 0 6 0;
#X connect 7 0 8 0;
#X connect 8 0 4 0;
#X connect 9 0 10 0;
#X connect 11 0 3 0;
#X connect 14 0 15 0;
#X connect 15 0 16 0;
#X connect 15 1 17 0;
#X connect 18 0 19 0;
#X connect 19 0 14 0;