#N canvas 0 22 850 500 10;
#X obj 100 20 inlet~ left;
#X obj 180 20 inlet~ right;
#X obj 100 450 outlet~ left;
#X obj 180 450 outlet~ right;
#X obj 260 20 inlet bits;
#X obj 100 70 *~ 0.9;
#X obj 180 70 *~ 0.9;
#X obj 100 100 clip~ -0.9 0.9;
#X obj 180 100 clip~ -0.9 0.9;
#X obj 260 70 / 127;
#X obj 260 100 * 14;
#X obj 260 130 + 2;
#X obj 260 160 int;
#X obj 260 190 sig~;
#X obj 100 130 *~ 0.5;
#X obj 180 130 *~ 0.5;
#X obj 100 160 +~ 0.5;
#X obj 180 160 +~ 0.5;
#X obj 260 220 expr~ 1 / ($v1 - 1);
#X obj 260 250 *~ 2;
#X obj 100 190 *~ 8;
#X obj 180 190 *~ 8;
#X obj 100 220 int~;
#X obj 180 220 int~;
#X obj 100 250 *~ 0.125;
#X obj 180 250 *~ 0.125;
#X obj 100 280 *~;
#X obj 180 280 *~;
#X obj 100 310 *~ 2;
#X obj 180 310 *~ 2;
#X obj 100 340 -~ 1;
#X obj 180 340 -~ 1;
#X obj 340 20 inlet rate;
#X obj 340 70 / 127;
#X obj 340 100 * 43900;
#X obj 340 130 + 100;
#X obj 340 160 sig~;
#X obj 100 370 hip~ 20;
#X obj 180 370 hip~ 20;
#X obj 100 400 *~ 0.9;
#X obj 180 400 *~ 0.9;
#X obj 100 430 clip~ -0.95 0.95;
#X obj 180 430 clip~ -0.95 0.95;
#X obj 420 20 inlet~ neural;
#X obj 420 70 abs~;
#X obj 420 100 *~ 0.4;
#X obj 420 130 +~ 0.2;
#X obj 420 160 *~;
#X obj 420 220 snapshot~;
#X obj 480 130 phasor~ 4;
#X obj 480 160 *~ 0.7;
#X obj 480 190 +~ 0.3;
#X obj 420 190 lop~ 10;
#X obj 340 190 *~;
#X text 530 70 12-bit style bitcrusher;
#X text 530 90 with neural modulation;
#X text 530 110 and Digitakt-style artifacts;
#X text 530 130 for creating lo-fi textures;
#X connect 0 0 5 0;
#X connect 1 0 6 0;
#X connect 4 0 9 0;
#X connect 5 0 7 0;
#X connect 6 0 8 0;
#X connect 7 0 14 0;
#X connect 8 0 15 0;
#X connect 9 0 10 0;
#X connect 10 0 11 0;
#X connect 11 0 12 0;
#X connect 12 0 13 0;
#X connect 13 0 18 0;
#X connect 14 0 16 0;
#X connect 15 0 17 0;
#X connect 16 0 20 0;
#X connect 17 0 21 0;
#X connect 18 0 19 0;
#X connect 19 0 26 1;
#X connect 19 0 27 1;
#X connect 20 0 22 0;
#X connect 21 0 23 0;
#X connect 22 0 24 0;
#X connect 23 0 25 0;
#X connect 24 0 26 0;
#X connect 25 0 27 0;
#X connect 26 0 28 0;
#X connect 27 0 29 0;
#X connect 28 0 30 0;
#X connect 29 0 31 0;
#X connect 30 0 37 0;
#X connect 31 0 38 0;
#X connect 32 0 33 0;
#X connect 33 0 34 0;
#X connect 34 0 35 0;
#X connect 35 0 36 0;
#X connect 36 0 53 0;
#X connect 37 0 39 0;
#X connect 38 0 40 0;
#X connect 39 0 41 0;
#X connect 40 0 42 0;
#X connect 41 0 2 0;
#X connect 42 0 3 0;
#X connect 43 0 44 0;
#X connect 44 0 45 0;
#X connect 45 0 46 0;
#X connect 46 0 47 0;
#X connect 47 0 52 0;
#X connect 48 0 53 1;
#X connect 49 0 50 0;
#X connect 50 0 51 0;
#X connect 51 0 47 1;
#X connect 52 0 48 0;
#X connect 53 0 22 1;
#X connect 53 0 23 1;