#N canvas 150 175 850 600 10;
#X obj 100 20 inlet~ ch1;
#X obj 180 20 inlet~ ch2;
#X obj 260 20 inlet~ ch3;
#X obj 340 20 inlet~ ch4;
#X obj 100 550 outlet~ ch1;
#X obj 180 550 outlet~ ch2;
#X obj 260 550 outlet~ ch3;
#X obj 340 550 outlet~ ch4;
#X obj 500 20 inlet threshold;
#X obj 600 20 inlet decay;
#X obj 700 20 inlet randomize;
#X obj 100 70 cortex;
#X obj 100 120 synapses;
#X obj 100 450 plasticity;
#X obj 100 500 +~;
#X obj 180 500 +~;
#X obj 260 500 +~;
#X obj 340 500 +~;
#X obj 100 170 s~ brain-out1~;
#X obj 180 170 s~ brain-out2~;
#X obj 260 170 s~ brain-out3~;
#X obj 340 170 s~ brain-out4~;
#X obj 100 400 r~ brain-out1~;
#X obj 197 401 r~ brain-out2~;
#X obj 291 400 r~ brain-out3~;
#X obj 409 400 r~ brain-out4~;
#X text 460 448 The "brain" section that contains;
#X text 460 468 the entire neural network system;
#X text 460 488 with cortex;
#X obj 500 50 s \$0-threshold;
#X obj 600 50 s \$0-decay;
#X obj 700 50 s \$0-randomize;
#X obj 800 20 inlet plasticity;
#X obj 800 50 s \$0-plasticity;
#X obj 800 80 r \$0-plasticity;
#X obj 100 350 *~ 0.6;
#X obj 180 350 *~ 0.6;
#X obj 260 350 *~ 0.6;
#X obj 340 350 *~ 0.6;
#X obj 500 80 r \$0-threshold;
#X obj 600 80 r \$0-decay;
#X obj 700 80 r \$0-randomize;
#X obj 100 220 snapshot~;
#X obj 100 250 change;
#X obj 100 280 s \$0-ch1-neural-level;
#X obj 180 220 snapshot~;
#X obj 180 250 change;
#X obj 194 314 s \$0-ch2-neural-level;
#X obj 260 220 snapshot~;
#X obj 260 250 change;
#X obj 325 292 s \$0-ch3-neural-level;
#X obj 340 220 snapshot~;
#X obj 340 250 change;
#X obj 433 266 s \$0-ch4-neural-level;
#X obj 400 320 r \$0-ch1-neural-level;
#X obj 481 285 r \$0-ch2-neural-level;
#X obj 615 280 r \$0-ch3-neural-level;
#X obj 679 322 r \$0-ch4-neural-level;
#X obj 400 350 s activity-ch1;
#X obj 532 391 s activity-ch2;
#X obj 600 362 s activity-ch3;
#X obj 693 395 s activity-ch4;
#X obj 100 320 metro 50;
#X obj 100 190 s~ neural1~;
#X obj 180 190 s~ neural2~;
#X obj 260 190 s~ neural3~;
#X obj 340 190 s~ neural4~;
#X obj 100 50 loadbang;
#X connect 0 0 11 0;
#X connect 1 0 11 1;
#X connect 2 0 11 2;
#X connect 3 0 11 3;
#X connect 8 0 29 0;
#X connect 9 0 30 0;
#X connect 10 0 31 0;
#X connect 11 0 12 0;
#X connect 11 1 12 1;
#X connect 11 2 12 2;
#X connect 11 3 12 3;
#X connect 12 0 18 0;
#X connect 12 0 63 0;
#X connect 12 1 19 0;
#X connect 12 1 64 0;
#X connect 12 2 20 0;
#X connect 12 2 65 0;
#X connect 12 3 21 0;
#X connect 12 3 66 0;
#X connect 13 0 14 1;
#X connect 13 1 15 1;
#X connect 13 2 16 1;
#X connect 13 3 17 1;
#X connect 14 0 4 0;
#X connect 15 0 5 0;
#X connect 16 0 6 0;
#X connect 17 0 7 0;
#X connect 22 0 35 0;
#X connect 23 0 36 0;
#X connect 24 0 37 0;
#X connect 25 0 38 0;
#X connect 32 0 33 0;
#X connect 34 0 13 3;
#X connect 35 0 14 0;
#X connect 35 0 42 0;
#X connect 36 0 15 0;
#X connect 36 0 45 0;
#X connect 37 0 16 0;
#X connect 37 0 48 0;
#X connect 38 0 17 0;
#X connect 38 0 51 0;
#X connect 39 0 11 4;
#X connect 40 0 11 5;
#X connect 41 0 12 4;
#X connect 42 0 43 0;
#X connect 43 0 44 0;
#X connect 45 0 46 0;
#X connect 46 0 47 0;
#X connect 48 0 49 0;
#X connect 49 0 50 0;
#X connect 51 0 52 0;
#X connect 52 0 53 0;
#X connect 54 0 58 0;
#X connect 55 0 59 0;
#X connect 56 0 60 0;
#X connect 57 0 61 0;
#X connect 62 0 42 0;
#X connect 62 0 45 0;
#X connect 62 0 48 0;
#X connect 62 0 51 0;
#X connect 67 0 62 0;
