#N canvas 0 22 850 600 10;
#X obj 100 20 inlet~ ch1;
#X obj 180 20 inlet~ ch2;
#X obj 260 20 inlet~ ch3;
#X obj 340 20 inlet~ ch4;
#X obj 100 550 outlet~ ch1;
#X obj 180 550 outlet~ ch2;
#X obj 260 550 outlet~ ch3;
#X obj 340 550 outlet~ ch4;
#X obj 100 70 *~ 1;
#X obj 180 70 *~ 1;
#X obj 260 70 *~ 1;
#X obj 340 70 *~ 1;
#X obj 100 100 s~ cortex-in1~;
#X obj 180 100 s~ cortex-in2~;
#X obj 260 100 s~ cortex-in3~;
#X obj 340 100 s~ cortex-in4~;
#X obj 100 170 r~ cortex-in1~;
#X obj 180 170 r~ cortex-in2~;
#X obj 260 170 r~ cortex-in3~;
#X obj 340 170 r~ cortex-in4~;
#X obj 100 220 neuron_osc;
#X obj 180 220 neuron;
#X obj 260 220 neuron_inhib;
#X obj 340 220 neuron;
#X obj 100 250 s~ neuron1~;
#X obj 180 250 s~ neuron2~;
#X obj 260 250 s~ neuron3~;
#X obj 340 250 s~ neuron4~;
#X obj 100 350 r~ neuron1~;
#X obj 180 350 r~ neuron2~;
#X obj 260 350 r~ neuron3~;
#X obj 340 350 r~ neuron4~;
#X obj 500 20 inlet threshold1;
#X obj 580 20 inlet threshold2;
#X obj 500 50 s \$0-threshold1;
#X obj 580 50 s \$0-threshold2;
#X obj 500 80 r \$0-threshold1;
#X obj 580 80 r \$0-threshold2;
#X obj 660 20 inlet decay;
#X obj 660 50 s \$0-decay;
#X obj 660 80 r \$0-decay;
#X obj 100 380 *~ 1;
#X obj 180 380 *~ 1;
#X obj 260 380 *~ 1;
#X obj 340 380 *~ 1;
#X obj 100 410 *~ 0.98;
#X obj 180 410 *~ 0.98;
#X obj 260 410 *~ 0.98;
#X obj 340 410 *~ 0.98;
#X obj 400 250 r~ inhibit_ambient;
#X obj 440 250 r~ inhibit_hihat;
#X obj 480 250 r~ inhibit_snare;
#X obj 520 250 r~ inhibit_tom;
#X obj 100 130 *~ 0.95;
#X obj 180 130 *~ 0.95;
#X obj 260 130 *~ 0.95;
#X obj 340 130 *~ 0.95;
#X obj 100 280 r~ feedback1~;
#X obj 180 280 r~ feedback2~;
#X obj 260 280 r~ feedback3~;
#X obj 340 280 r~ feedback4~;
#X obj 100 310 *~ 0.3;
#X obj 180 310 *~ 0.3;
#X obj 260 310 *~ 0.3;
#X obj 340 310 *~ 0.3;
#X obj 100 520 s~ neural1~;
#X obj 180 520 s~ neural2~;
#X obj 260 520 s~ neural3~;
#X obj 340 520 s~ neural4~;
#X obj 100 450 s~ feedback1~;
#X obj 180 450 s~ feedback2~;
#X obj 260 450 s~ feedback3~;
#X obj 340 450 s~ feedback4~;
#X obj 400 280 *~ 0.4;
#X obj 440 280 *~ 0.4;
#X obj 480 280 *~ 0.4;
#X obj 520 280 *~ 0.4;
#X obj 400 310 *~ -1;
#X obj 440 310 *~ -1;
#X obj 480 310 *~ -1;
#X obj 520 310 *~ -1;
#X obj 400 340 +~;
#X obj 440 340 +~;
#X obj 480 340 +~;
#X obj 520 340 +~;
#X text 580 120 Neural cortex - core neural network;
#X text 580 140 with cross-inhibition and feedback;
#X text 580 160 processing for all channels;
#X connect 0 0 8 0;
#X connect 1 0 9 0;
#X connect 2 0 10 0;
#X connect 3 0 11 0;
#X connect 8 0 53 0;
#X connect 9 0 54 0;
#X connect 10 0 55 0;
#X connect 11 0 56 0;
#X connect 16 0 20 0;
#X connect 17 0 21 0;
#X connect 18 0 22 0;
#X connect 19 0 23 0;
#X connect 20 0 24 0;
#X connect 21 0 25 0;
#X connect 22 0 26 0;
#X connect 23 0 27 0;
#X connect 28 0 41 0;
#X connect 29 0 42 0;
#X connect 30 0 43 0;
#X connect 31 0 44 0;
#X connect 32 0 34 0;
#X connect 33 0 35 0;
#X connect 36 0 20 3;
#X connect 36 0 21 3;
#X connect 36 0 22 3;
#X connect 36 0 23 3;
#X connect 37 0 20 3;
#X connect 37 0 21 3;
#X connect 37 0 22 3;
#X connect 37 0 23 3;
#X connect 38 0 39 0;
#X connect 40 0 20 4;
#X connect 40 0 21 4;
#X connect 40 0 22 4;
#X connect 40 0 23 4;
#X connect 41 0 45 0;
#X connect 42 0 46 0;
#X connect 43 0 47 0;
#X connect 44 0 48 0;
#X connect 45 0 69 0;
#X connect 45 0 4 0;
#X connect 46 0 70 0;
#X connect 46 0 5 0;
#X connect 47 0 71 0;
#X connect 47 0 6 0;
#X connect 48 0 72 0;
#X connect 48 0 7 0;
#X connect 49 0 73 0;
#X connect 50 0 74 0;
#X connect 51 0 75 0;
#X connect 52 0 76 0;
#X connect 53 0 12 0;
#X connect 54 0 13 0;
#X connect 55 0 14 0;
#X connect 56 0 15 0;
#X connect 57 0 61 0;
#X connect 58 0 62 0;
#X connect 59 0 63 0;
#X connect 60 0 64 0;
#X connect 61 0 20 2;
#X connect 62 0 21 2;
#X connect 63 0 22 2;
#X connect 64 0 23 2;
#X connect 69 0 65 0;
#X connect 70 0 66 0;
#X connect 71 0 67 0;
#X connect 72 0 68 0;
#X connect 73 0 77 0;
#X connect 74 0 78 0;
#X connect 75 0 79 0;
#X connect 76 0 80 0;
#X connect 77 0 81 0;
#X connect 78 0 82 0;
#X connect 79 0 83 0;
#X connect 80 0 84 0;
#X connect 81 0 20 0;
#X connect 81 0 21 1;
#X connect 82 0 21 0;
#X connect 82 0 23 1;
#X connect 83 0 22 0;
#X connect 83 0 20 1;
#X connect 84 0 23 0;
#X connect 84 0 22 1;