#N canvas 0 22 850 600 10;
#X obj 100 50 inlet~ left;
#X obj 180 50 inlet~ right;
#X obj 260 50 inlet trigger;
#X obj 180 150 writesf~ 2;
#X obj 100 80 *~ 0.95;
#X obj 180 80 *~ 0.95;
#X obj 260 120 t b b;
#X msg 260 180 start;
#X msg 310 180 stop;
#X obj 260 210 delay 30000;
#X obj 340 50 inlet buffer_length;
#X obj 340 80 * 1000;
#X obj 340 110 s \$0-buffer-length;
#X obj 400 50 inlet filename;
#X obj 400 80 symbol;
#X obj 400 110 makefilename %s;
#X obj 400 140 s \$0-filename;
#X msg 400 290 open %s.wav;
#X obj 260 240 s \$0-sampler-stop;
#X obj 310 240 r \$0-sampler-stop;
#X obj 400 180 r \$0-filename;
#X obj 260 80 spigot 1;
#X obj 400 210 pack s;
#X obj 400 240 t b a;
#X obj 400 320 s \$0-sampler-file;
#X obj 180 120 r \$0-sampler-file;
#X obj 180 500 outlet;
#X msg 180 420 File recorded: %s;
#X obj 180 380 r \$0-filename;
#X obj 180 460 symbol;
#X obj 400 400 r \$0-buffer-length;
#X obj 260 290 r \$0-buffer-length;
#X text 480 50 Digitakt sampler with configurable;
#X text 480 70 buffer length and filename;
#X msg 340 320 \$1;
#X obj 340 350 change;
#X obj 340 380 s \$0-delay-ms;
#X obj 260 320 r \$0-delay-ms;
#X connect 0 0 4 0;
#X connect 1 0 5 0;
#X connect 2 0 21 0;
#X connect 4 0 3 0;
#X connect 5 0 3 1;
#X connect 6 0 7 0;
#X connect 6 1 9 0;
#X connect 7 0 3 0;
#X connect 8 0 3 0;
#X connect 9 0 18 0;
#X connect 10 0 11 0;
#X connect 11 0 12 0;
#X connect 13 0 14 0;
#X connect 14 0 15 0;
#X connect 15 0 16 0;
#X connect 17 0 24 0;
#X connect 19 0 8 0;
#X connect 20 0 22 0;
#X connect 21 0 6 0;
#X connect 22 0 23 0;
#X connect 23 0 17 0;
#X connect 23 1 17 0;
#X connect 25 0 3 0;
#X connect 27 0 29 0;
#X connect 28 0 27 0;
#X connect 29 0 26 0;
#X connect 30 0 34 0;
#X connect 31 0 37 0;
#X connect 34 0 35 0;
#X connect 35 0 36 0;
#X connect 37 0 9 1;