#N canvas 0 22 850 600 10;
#X obj 100 50 notein;
#X obj 200 50 ctlin;
#X obj 100 100 sel 36 37 38 39 40;
#X obj 100 150 s \$0-ch1-mute;
#X obj 150 150 s \$0-ch2-mute;
#X obj 200 150 s \$0-ch3-mute;
#X obj 250 150 s \$0-ch4-mute;
#X obj 300 150 s \$0-sample-record;
#X obj 400 100 sel 1 2 5;
#X obj 400 150 s \$0-cc-ambient-feedback;
#X obj 450 150 s \$0-cc-delay-time;
#X obj 500 150 s \$0-cc-chaos-rate;
#X obj 200 200 r \$0-sample-record;
#X obj 200 230 t b;
#X obj 200 260 s record-trigger;
#X text 550 50 MIDI control interface for Digitakt;
#X text 550 70 Notes 36-40 (C1-E1) control mutes and recording;
#X text 550 90 CCs 1, 2, 5 control ambient feedback, delay, chaos rate;
#X obj 400 200 r \$0-cc-ambient-feedback;
#X obj 400 230 s ch1-feedback;
#X obj 500 200 r \$0-cc-delay-time;
#X obj 500 230 s fx-delay-time;
#X obj 600 200 r \$0-cc-chaos-rate;
#X obj 600 230 s ch3-chaos-rate;
#X connect 0 0 2 0;
#X connect 1 0 8 0;
#X connect 1 1 8 1;
#X connect 2 0 3 0;
#X connect 2 1 4 0;
#X connect 2 2 5 0;
#X connect 2 3 6 0;
#X connect 2 4 7 0;
#X connect 8 0 9 0;
#X connect 8 1 10 0;
#X connect 8 2 11 0;
#X connect 12 0 13 0;
#X connect 13 0 14 0;
#X connect 18 0 19 0;
#X connect 20 0 21 0;
#X connect 22 0 23 0;