#N canvas 0 22 850 600 10;
#X obj 100 20 inlet;
#X obj 100 550 outlet;
#X obj 180 20 inlet mutation_rate;
#X obj 260 20 inlet pattern_length;
#X obj 180 50 s \$0-mutation-rate;
#X obj 260 50 s \$0-pattern-length;
#X obj 100 50 loadbang;
#X obj 100 80 metro 5000;
#X obj 180 80 r \$0-mutation-rate;
#X obj 180 110 / 127;
#X obj 180 140 * 4900;
#X obj 180 170 + 100;
#X obj 100 110 t b b;
#X obj 100 140 random 16;
#X msg 100 170 clear;
#X obj 150 170 t b;
#X obj 150 200 until;
#X obj 150 230 random 16;
#X obj 150 260 random 2;
#X obj 150 290 pack f f;
#X msg 150 320 \$1 \$2;
#X obj 150 350 route 0 1 2 3 4 5 6 7 8 9 10 11 12 13 14 15;
#X obj 100 380 list prepend;
#X obj 100 410 list trim;
#X obj 100 440 route 0 1 2 3 4 5 6 7 8 9 10 11 12 13 14 15;
#X obj 100 470 sel 1;
#X obj 130 470 sel 1;
#X obj 160 470 sel 1;
#X obj 190 470 sel 1;
#X obj 220 470 sel 1;
#X obj 250 470 sel 1;
#X obj 280 470 sel 1;
#X obj 310 470 sel 1;
#X obj 340 470 sel 1;
#X obj 370 470 sel 1;
#X obj 400 470 sel 1;
#X obj 430 470 sel 1;
#X obj 460 470 sel 1;
#X obj 490 470 sel 1;
#X obj 520 470 sel 1;
#X obj 550 470 sel 1;
#X obj 100 500 t b;
#X obj 130 500 t b;
#X obj 160 500 t b;
#X obj 190 500 t b;
#X obj 220 500 t b;
#X obj 250 500 t b;
#X obj 280 500 t b;
#X obj 310 500 t b;
#X obj 340 500 t b;
#X obj 370 500 t b;
#X obj 400 500 t b;
#X obj 430 500 t b;
#X obj 460 500 t b;
#X obj 490 500 t b;
#X obj 520 500 t b;
#X obj 550 500 t b;
#X obj 350 80 r \$0-pattern-length;
#X obj 350 110 t f f;
#X obj 350 140 s \$0-steps;
#X obj 380 140 / 2;
#X obj 380 170 + 2;
#X obj 380 200 s \$0-fills;
#X obj 260 80 r \$0-steps;
#X obj 180 200 s \$0-metro-time;
#X obj 100 200 s \$0-current-seed;
#X obj 60 350 r \$0-current-seed;
#X text 600 100 DNA-based rhythm generator;
#X text 600 120 that creates evolving patterns;
#X text 600 140 through genetic-inspired mutations;
#X connect 0 0 6 0;
#X connect 2 0 4 0;
#X connect 3 0 5 0;
#X connect 6 0 7 0;
#X connect 7 0 12 0;
#X connect 8 0 9 0;
#X connect 9 0 10 0;
#X connect 10 0 11 0;
#X connect 11 0 65 0;
#X connect 12 0 13 0;
#X connect 12 1 14 0;
#X connect 13 0 66 0;
#X connect 14 0 22 0;
#X connect 15 0 16 0;
#X connect 16 0 17 0;
#X connect 17 0 18 0;
#X connect 18 0 19 0;
#X connect 19 0 20 0;
#X connect 20 0 21 0;
#X connect 21 0 22 1;
#X connect 21 1 22 1;
#X connect 21 2 22 1;
#X connect 21 3 22 1;
#X connect 21 4 22 1;
#X connect 21 5 22 1;
#X connect 21 6 22 1;
#X connect 21 7 22 1;
#X connect 21 8 22 1;
#X connect 21 9 22 1;
#X connect 21 10 22 1;
#X connect 21 11 22 1;
#X connect 21 12 22 1;
#X connect 21 13 22 1;
#X connect 21 14 22 1;
#X connect 21 15 22 1;
#X connect 22 0 23 0;
#X connect 23 0 24 0;
#X connect 24 0 25 0;
#X connect 24 1 26 0;
#X connect 24 2 27 0;
#X connect 24 3 28 0;
#X connect 24 4 29 0;
#X connect 24 5 30 0;
#X connect 24 6 31 0;
#X connect 24 7 32 0;
#X connect 24 8 33 0;
#X connect 24 9 34 0;
#X connect 24 10 35 0;
#X connect 24 11 36 0;
#X connect 24 12 37 0;
#X connect 24 13 38 0;
#X connect 24 14 39 0;
#X connect 24 15 40 0;
#X connect 25 0 41 0;
#X connect 26 0 42 0;
#X connect 27 0 43 0;
#X connect 28 0 44 0;
#X connect 29 0 45 0;
#X connect 30 0 46 0;
#X connect 31 0 47 0;
#X connect 32 0 48 0;
#X connect 33 0 49 0;
#X connect 34 0 50 0;
#X connect 35 0 51 0;
#X connect 36 0 52 0;
#X connect 37 0 53 0;
#X connect 38 0 54 0;
#X connect 39 0 55 0;
#X connect 40 0 56 0;
#X connect 41 0 1 0;
#X connect 42 0 1 0;
#X connect 43 0 1 0;
#X connect 44 0 1 0;
#X connect 45 0 1 0;
#X connect 46 0 1 0;
#X connect 47 0 1 0;
#X connect 48 0 1 0;
#X connect 49 0 1 0;
#X connect 50 0 1 0;
#X connect 51 0 1 0;
#X connect 52 0 1 0;
#X connect 53 0 1 0;
#X connect 54 0 1 0;
#X connect 55 0 1 0;
#X connect 56 0 1 0;
#X connect 57 0 58 0;
#X connect 58 0 59 0;
#X connect 58 1 60 0;
#X connect 60 0 61 0;
#X connect 61 0 62 0;
#X connect 63 0 16 1;
#X connect 67 0 22 1;