#N canvas 0 22 850 600 10;
#X obj 100 50 inlet~ left;
#X obj 180 50 inlet~ right;
#X obj 100 500 outlet~ left;
#X obj 180 500 outlet~ right;
#X obj 400 50 inlet delay_time;
#X obj 480 50 inlet reverb_amount;
#X obj 560 50 inlet bitcrush_amount;
#X obj 100 120 delwrite~ \$0-delay-l 3000;
#X obj 180 120 delwrite~ \$0-delay-r 3000;
#X obj 100 150 delread~ \$0-delay-l 500;
#X obj 180 150 delread~ \$0-delay-r 500;
#X obj 100 200 *~ 0.7;
#X obj 180 200 *~ 0.7;
#X obj 100 230 +~;
#X obj 180 230 +~;
#X obj 100 260 freeverb~;
#X obj 100 290 *~;
#X obj 180 290 *~;
#X obj 400 120 / 127;
#X obj 400 150 * 2000;
#X obj 400 180 + 10;
#X obj 400 210 change;
#X msg 400 240 \$1 50;
#X obj 400 270 line~;
#X obj 480 120 / 127;
#X obj 480 150 * 0.9;
#X obj 480 180 + 0.1;
#X obj 320 320 snapshot~;
#X obj 320 350 int;
#X obj 320 380 sig~;
#X obj 100 410 *~;
#X obj 180 410 *~;
#X obj 400 300 s \$0-delay-time;
#X obj 480 210 s \$0-reverb-wet;
#X obj 560 120 / 127;
#X obj 560 150 * 15.9;
#X obj 560 180 + 0.1;
#X obj 560 210 change;
#X obj 560 240 s \$0-bit-depth;
#X obj 320 290 r \$0-bit-depth;
#X obj 320 410 expr~ 1 / pow(2\$f1-1);
#X obj 320 440 *~ 2;
#X obj 320 470 -~ 1;
#X obj 100 440 *~;
#X obj 180 440 *~;
#X obj 400 81 r \$0-cc-delay-time;
#X obj 480 81 r \$0-cc-reverb-amount;
#X obj 560 81 r \$0-cc-bitcrush-amount;
#X obj 60 350 r \$0-reverb-wet;
#X connect 0 0 13 0;
#X connect 0 0 7 0;
#X connect 1 0 14 0;
#X connect 1 0 8 0;
#X connect 4 0 18 0;
#X connect 5 0 24 0;
#X connect 6 0 34 0;
#X connect 9 0 11 0;
#X connect 10 0 12 0;
#X connect 11 0 13 1;
#X connect 12 0 14 1;
#X connect 13 0 15 0;
#X connect 14 0 15 1;
#X connect 15 0 16 0;
#X connect 15 1 17 0;
#X connect 16 0 30 0;
#X connect 17 0 31 0;
#X connect 18 0 19 0;
#X connect 19 0 20 0;
#X connect 20 0 21 0;
#X connect 21 0 22 0;
#X connect 22 0 23 0;
#X connect 23 0 9 0;
#X connect 23 0 10 0;
#X connect 23 0 32 0;
#X connect 24 0 25 0;
#X connect 25 0 26 0;
#X connect 26 0 33 0;
#X connect 27 0 28 0;
#X connect 28 0 29 0;
#X connect 29 0 40 0;
#X connect 30 0 43 0;
#X connect 31 0 44 0;
#X connect 34 0 35 0;
#X connect 35 0 36 0;
#X connect 36 0 37 0;
#X connect 37 0 38 0;
#X connect 39 0 27 0;
#X connect 40 0 41 0;
#X connect 41 0 42 0;
#X connect 42 0 43 1;
#X connect 42 0 44 1;
#X connect 43 0 2 0;
#X connect 44 0 3 0;
#X connect 45 0 4 0;
#X connect 46 0 5 0;
#X connect 47 0 6 0;
#X connect 48 0 16 1;
#X connect 48 0 17 1;