#N canvas 1020 213 850 600 10;
#X obj 100 20 inlet~ ch1;
#X obj 180 20 inlet~ ch2;
#X obj 260 20 inlet~ ch3;
#X obj 340 20 inlet~ ch4;
#X obj 420 20 inlet~ left;
#X obj 500 20 inlet~ right;
#X obj 100 520 outlet;
#X obj 100 70 hip~ 20;
#X obj 180 70 hip~ 20;
#X obj 260 70 hip~ 20;
#X obj 340 70 hip~ 20;
#X obj 420 70 hip~ 20;
#X obj 500 70 hip~ 20;
#X obj 580 20 inlet trigger;
#X obj 597 54 route 1 2 3 4 5 6;
#X obj 100 100 *~ 0.95;
#X obj 180 100 *~ 0.95;
#X obj 260 100 *~ 0.95;
#X obj 340 100 *~ 0.95;
#X obj 420 100 *~ 0.95;
#X obj 475 92 *~ 0.95;
#X obj 13 133 clip~ -0.95 0.95;
#X obj 128 120 clip~ -0.95 0.95;
#X obj 220 138 clip~ -0.95 0.95;
#X obj 321 123 clip~ -0.95 0.95;
#X obj 433 124 clip~ -0.95 0.95;
#X obj 537 126 clip~ -0.95 0.95;
#X obj 100 160 writesf~;
#X obj 180 160 writesf~;
#X obj 260 160 writesf~;
#X obj 340 160 writesf~;
#X obj 420 160 writesf~ 2;
#X obj 100 190 t b b;
#X obj 180 190 t b b;
#X obj 260 190 t b b;
#X obj 340 190 t b b;
#X obj 420 190 t b b;
#X msg 100 250 start;
#X msg 140 250 stop;
#X msg 180 250 start;
#X msg 220 250 stop;
#X msg 260 250 start;
#X msg 300 250 stop;
#X msg 340 250 start;
#X msg 380 250 stop;
#X msg 420 250 start;
#X msg 460 250 stop;
#X obj 100 220 delay 5000;
#X obj 180 220 delay 5000;
#X obj 260 220 delay 5000;
#X obj 340 220 delay 5000;
#X obj 420 220 delay 30000;
#X obj 525 90 s \$0-export-ch1;
#X obj 556 105 s \$0-export-ch2;
#X obj 622 86 s \$0-export-ch3;
#X obj 654 109 s \$0-export-ch4;
#X obj 734 91 s \$0-export-main;
#X obj 752 70 s \$0-export-all;
#X obj 51 274 r \$0-export-ch1;
#X obj 156 274 r \$0-export-ch2;
#X obj 260 280 r \$0-export-ch3;
#X obj 398 278 r \$0-export-ch4;
#X obj 494 276 r \$0-export-main;
#X obj 622 273 r \$0-export-all;
#X obj 681 306 t b b b b b;
#X obj 678 17 inlet filename;
#X obj 524 153 symbol;
#X obj 564 209 makefilename %s;
#X obj 2 300 makefilename samples/%s-ch1.wav;
#X obj 169 320 makefilename samples/%s-ch2.wav;
#X obj 295 301 makefilename samples/%s-ch3.wav;
#X obj 483 304 makefilename samples/%s-ch4.wav;
#X obj 797 305 makefilename samples/%s-main.wav;
#X obj 44 330 list prepend open;
#X obj 100 370 list trim;
#X obj 195 343 list prepend open;
#X obj 180 370 list trim;
#X obj 418 329 list prepend open;
#X obj 260 370 list trim;
#X obj 552 328 list prepend open;
#X obj 340 370 list trim;
#X obj 680 331 list prepend open;
#X obj 420 370 list trim;
#X obj 651 132 s \$0-filename;
#X obj 100 400 s \$0-ch1-file;
#X obj 180 400 s \$0-ch2-file;
#X obj 260 400 s \$0-ch3-file;
#X obj 340 400 s \$0-ch4-file;
#X obj 447 399 s \$0-main-file;
#X obj 100 430 r \$0-ch1-file;
#X obj 180 430 r \$0-ch2-file;
#X obj 260 430 r \$0-ch3-file;
#X obj 340 430 r \$0-ch4-file;
#X obj 420 430 r \$0-main-file;
#X obj 570 442 list;
#X obj 500 460 list prepend Samples exported:;
#X obj 500 490 list trim;
#X obj 740 130 r \$0-filename;
#X obj 763 160 list;
#X obj 660 160 r \$0-filename;
#X text 646 351 Digitakt-style export rack;
#X text 646 371 with per-channel sample export;
#X text 646 391 and slice marker generation;
#X connect 0 0 7 0;
#X connect 1 0 8 0;
#X connect 2 0 9 0;
#X connect 3 0 10 0;
#X connect 4 0 11 0;
#X connect 5 0 12 0;
#X connect 7 0 15 0;
#X connect 8 0 16 0;
#X connect 9 0 17 0;
#X connect 10 0 18 0;
#X connect 11 0 19 0;
#X connect 12 0 20 0;
#X connect 13 0 14 0;
#X connect 14 0 53 0;
#X connect 14 1 54 0;
#X connect 14 2 55 0;
#X connect 14 3 56 0;
#X connect 14 4 57 0;
#X connect 15 0 21 0;
#X connect 16 0 22 0;
#X connect 17 0 23 0;
#X connect 18 0 24 0;
#X connect 19 0 25 0;
#X connect 20 0 26 0;
#X connect 21 0 27 0;
#X connect 22 0 28 0;
#X connect 23 0 29 0;
#X connect 24 0 30 0;
#X connect 25 0 31 0;
#X connect 26 0 31 1;
#X connect 32 0 47 0;
#X connect 32 1 38 0;
#X connect 33 0 48 0;
#X connect 33 1 40 0;
#X connect 34 0 49 0;
#X connect 34 1 42 0;
#X connect 35 0 50 0;
#X connect 35 1 44 0;
#X connect 36 0 51 0;
#X connect 36 1 46 0;
#X connect 37 0 27 0;
#X connect 38 0 27 0;
#X connect 39 0 28 0;
#X connect 40 0 28 0;
#X connect 41 0 29 0;
#X connect 42 0 29 0;
#X connect 43 0 30 0;
#X connect 44 0 30 0;
#X connect 45 0 31 0;
#X connect 46 0 31 0;
#X connect 47 0 38 0;
#X connect 48 0 40 0;
#X connect 49 0 42 0;
#X connect 50 0 44 0;
#X connect 51 0 46 0;
#X connect 59 0 32 0;
#X connect 59 0 68 0;
#X connect 60 0 33 0;
#X connect 60 0 69 0;
#X connect 61 0 34 0;
#X connect 61 0 70 0;
#X connect 62 0 35 0;
#X connect 62 0 71 0;
#X connect 63 0 36 0;
#X connect 63 0 72 0;
#X connect 66 0 67 0;
#X connect 67 0 68 0;
#X connect 67 0 69 0;
#X connect 67 0 70 0;
#X connect 67 0 71 0;
#X connect 67 0 72 0;
#X connect 68 0 73 0;
#X connect 69 0 75 0;
#X connect 70 0 77 0;
#X connect 71 0 79 0;
#X connect 72 0 81 0;
#X connect 73 0 74 0;
#X connect 74 0 83 0;
#X connect 75 0 76 0;
#X connect 76 0 84 0;
#X connect 77 0 78 0;
#X connect 78 0 85 0;
#X connect 79 0 80 0;
#X connect 80 0 86 0;
#X connect 81 0 82 0;
#X connect 82 0 87 0;
#X connect 93 0 94 0;
#X connect 94 0 95 0;
#X connect 95 0 6 0;
#X connect 97 0 68 0;
#X connect 97 0 69 0;
#X connect 97 0 70 0;
#X connect 97 0 71 0;
#X connect 97 0 72 0;
