#N canvas 237 262 850 600 10;
#X obj 57 19 inlet~ left;
#X obj 141 18 inlet~ right;
#X obj 100 550 outlet~ left;
#X obj 180 550 outlet~ right;
#X obj 224 17 inlet~ neural1;
#X obj 320 16 inlet~ neural2;
#X obj 411 13 inlet~ neural3;
#X obj 519 14 inlet~ neural4;
#X obj 100 70 neuroverb;
#X obj 100 120 bitnuke;
#X obj 100 170 s~ fx-left;
#X obj 180 170 s~ fx-right;
#X obj 100 220 r~ fx-left;
#X obj 180 220 r~ fx-right;
#X obj 100 250 +~;
#X obj 180 250 +~;
#X obj 100 280 *~ 0.7;
#X obj 180 280 *~ 0.7;
#X obj 100 310 delwrite~ \$0-delay-l 4000;
#X obj 260 300 delwrite~ \$0-delay-r 4000;
#X obj 47 344 delread~ \$0-delay-l 500;
#X obj 244 351 delread~ \$0-delay-r 500;
#X obj 100 370 *~ 0.6;
#X obj 180 370 *~ 0.6;
#X obj 100 400 +~;
#X obj 180 400 +~;
#X obj 100 430 *~ 0.9;
#X obj 180 430 *~ 0.9;
#X obj 260 70 abs~;
#X obj 260 100 *~ 3000;
#X obj 260 130 + 500;
#X obj 260 160 sig~;
#X obj 260 190 lop~ 10;
#X obj 260 220 s~ \$0-neural-delay;
#X obj 416 317 r~ \$0-neural-delay;
#X obj 628 15 inlet delay;
#X obj 580 50 / 127;
#X obj 580 80 * 0.8;
#X obj 580 110 + 0.2;
#X obj 580 140 s \$0-delay-amt;
#X obj 100 460 clip~ -0.95 0.95;
#X obj 180 460 clip~ -0.95 0.95;
#X obj 100 490 hip~ 20;
#X obj 180 490 hip~ 20;
#X obj 100 520 *~ 0.9;
#X obj 180 520 *~ 0.9;
#X obj 400 40 loadbang;
#X obj 400 70 metro 20;  ; Trigger for snapshot~ objects
#X obj 621 196 r \$0-delay-amt;
#X obj 260 250 r \$0-delay-amt;
#X obj 260 280 *~ 0.5;
#X obj 340 70 abs~;
#X obj 340 100 *~ 12;
#X obj 340 120 snapshot~;  ; Convert signal to control value
#X obj 340 140 + 2;
#X obj 340 160 s \$0-bit-depth;
#X obj 420 70 abs~;
#X obj 420 100 *~ 0.95;
#X obj 420 120 snapshot~;  ; Convert signal to control value
#X obj 420 140 s \$0-verb-size;
#X obj 500 70 abs~;
#X obj 500 100 *~ 127;
#X obj 500 120 snapshot~;  ; Convert signal to control value
#X obj 500 140 s \$0-fx-param;
#X obj 340 190 r \$0-bit-depth;
#X obj 449 201 r \$0-verb-size;
#X obj 539 174 r \$0-fx-param;
#X text 643 46 Generative effects with neural;
#X text 643 66 control over all parameters;
#X text 643 86 for evolving textures";
#X connect 0 0 8 0;
#X connect 1 0 8 1;
#X connect 4 0 8 2;
#X connect 4 0 28 0;
#X connect 5 0 49 0;
#X connect 6 0 53 0;
#X connect 7 0 57 0;
#X connect 8 0 9 0;
#X connect 8 1 9 1;
#X connect 9 0 10 0;
#X connect 9 1 11 0;
#X connect 12 0 14 0;
#X connect 13 0 15 0;
#X connect 14 0 16 0;
#X connect 15 0 17 0;
#X connect 16 0 18 0;
#X connect 17 0 19 0;
#X connect 20 0 22 0;
#X connect 21 0 23 0;
#X connect 22 0 24 1;
#X connect 23 0 25 1;
#X connect 24 0 26 0;
#X connect 25 0 27 0;
#X connect 26 0 40 0;
#X connect 27 0 41 0;
#X connect 28 0 29 0;
#X connect 29 0 30 0;
#X connect 30 0 31 0;
#X connect 31 0 32 0;
#X connect 32 0 33 0;
#X connect 34 0 20 0;
#X connect 34 0 21 0;
#X connect 35 0 36 0;
#X connect 36 0 37 0;
#X connect 37 0 38 0;
#X connect 38 0 39 0;
#X connect 40 0 42 0;
#X connect 41 0 43 0;
#X connect 42 0 44 0;
#X connect 43 0 45 0;
#X connect 44 0 2 0;
#X connect 45 0 3 0;
#X connect 46 0 22 1;
#X connect 46 0 23 1;
#X connect 47 0 48 0;
#X connect 48 0 32 1;
#X connect 49 0 50 0;
#X connect 50 0 51 0;
#X connect 51 0 52 0;
#X connect 52 0 53 0;
#X connect 55 0 56 0;
#X connect 56 0 57 0;
#X connect 57 0 58 0;
#X connect 59 0 60 0;
#X connect 60 0 61 0;
#X connect 61 0 62 0;
#X connect 63 0 64 0;
#X connect 64 0 53 0;
#X connect 64 0 58 0;
#X connect 64 0 62 0;
#X connect 65 0 9 1;
#X connect 66 0 8 4;
