#N canvas 179 25 850 600 10;
#X obj 100 20 inlet;
#X obj 100 550 outlet;
#X obj 100 50 notein;
#X obj 180 50 ctlin;
#X obj 260 50 pgmin;
#X obj 25 92 sel 36 37 38 39 40 64 65;
#X obj 226 76 sel 1 2 5 64 65 66 67;
#X obj 411 72 sel 1 2 3;
#X obj 5 151 s \$0-note-C1;
#X obj 77 130 s \$0-note-C#1;
#X obj 96 151 s \$0-note-D1;
#X obj 167 127 s \$0-note-D#1;
#X obj 179 150 s \$0-note-E1;
#X obj 181 168 s \$0-note-FUNC;
#X obj 286 173 s \$0-note-FUNC-ALT;
#X obj 200 104 s \$0-cc-ambient-fb;
#X obj 298 150 s \$0-cc-delay-time;
#X obj 306 124 s \$0-cc-chaos-rate;
#X obj 439 171 s \$0-cc-mod1;
#X obj 448 150 s \$0-cc-mod2;
#X obj 535 150 s \$0-cc-mod3;
#X obj 631 149 s \$0-cc-mod4;
#X obj 517 71 s \$0-pc-fractal;
#X obj 714 169 s \$0-pc-randomize;
#X obj 720 147 s \$0-pc-freeze;
#X obj 100 200 r \$0-note-C1;
#X obj 100 230 s ch1-mute;
#X obj 200 200 r \$0-note-C#1;
#X obj 200 230 s ch2-mute;
#X obj 300 200 r \$0-note-D1;
#X obj 300 230 s ch3-mute;
#X obj 400 200 r \$0-note-D#1;
#X obj 400 230 s ch4-mute;
#X obj 500 200 r \$0-note-E1;
#X obj 500 230 s recorder-trig;
#X obj 100 280 r \$0-note-FUNC;
#X obj 206 257 r \$0-note-C1;
#X obj 300 280 spigot;
#X obj 300 310 s mute-group1;
#X obj 100 310 s \$0-func-status;
#X obj 420 306 r \$0-func-status;
#X obj 211 307 r \$0-note-C#1;
#X obj 300 340 spigot;
#X obj 300 370 s mute-group2;
#X obj 153 390 r \$0-cc-ambient-fb;
#X obj 200 430 s ambient-fb;
#X obj 300 400 r \$0-cc-delay-time;
#X obj 300 430 s delay-time;
#X obj 427 395 r \$0-cc-chaos-rate;
#X obj 400 430 s chaos-rate;
#X obj 552 399 r \$0-cc-mod1;
#X obj 500 430 s plasticity-amt;
#X obj 93 455 r \$0-pc-fractal;
#X obj 100 490 s fractal-mode;
#X obj 192 449 r \$0-pc-randomize;
#X obj 200 490 t b;
#X obj 200 520 s randomize-all;
#X obj 300 460 r \$0-pc-freeze;
#X obj 300 490 sel 1;
#X obj 300 520 s freeze-buffers;
#X obj 414 452 r randomize-all;
#X obj 400 490 t b b b b;
#X text 625 19 MIDI proxy for Digitakt integration;
#X text 625 39 with full interface mapping for:;
#X text 625 59 - Program Change messages;
#X text 625 79 - CC controls with mod matrix;
#X text 625 99 - Mute groups via FUNC+trig;
#X connect 2 0 5 0;
#X connect 3 0 6 0;
#X connect 4 0 7 0;
#X connect 5 0 8 0;
#X connect 5 1 9 0;
#X connect 5 2 10 0;
#X connect 5 3 11 0;
#X connect 5 4 12 0;
#X connect 5 5 13 0;
#X connect 5 6 14 0;
#X connect 6 0 15 0;
#X connect 6 1 16 0;
#X connect 6 2 17 0;
#X connect 6 3 18 0;
#X connect 6 4 19 0;
#X connect 6 5 20 0;
#X connect 6 6 21 0;
#X connect 7 0 22 0;
#X connect 7 1 23 0;
#X connect 7 2 24 0;
#X connect 25 0 26 0;
#X connect 27 0 28 0;
#X connect 29 0 30 0;
#X connect 31 0 32 0;
#X connect 33 0 34 0;
#X connect 35 0 39 0;
#X connect 36 0 37 0;
#X connect 37 0 38 0;
#X connect 40 0 37 1;
#X connect 40 0 42 1;
#X connect 41 0 42 0;
#X connect 42 0 43 0;
#X connect 44 0 45 0;
#X connect 46 0 47 0;
#X connect 48 0 49 0;
#X connect 50 0 51 0;
#X connect 52 0 53 0;
#X connect 54 0 55 0;
#X connect 55 0 56 0;
#X connect 57 0 58 0;
#X connect 58 0 59 0;
#X connect 60 0 61 0;
#X connect 61 0 55 0;
#X connect 61 1 58 0;
#X connect 61 2 38 0;
#X connect 61 3 43 0;
