#N canvas 0 22 1200 700 10;
#X declare -path ./abstractions;
#X obj 100 50 loadbang;
#X obj 100 80 delay 100;
#X msg 100 110 \; pd dsp 1;
#X obj 600 50 declare -path ./abstractions;
#X obj 200 140 ambient;
#X obj 300 140 hihat;
#X obj 400 140 snare;
#X obj 500 140 tom;
#X obj 200 380 neural_mixer;
#X obj 200 420 effects;
#X obj 200 460 digitakt_sampler;
#X obj 200 520 dac~;
#X obj 600 140 digitakt_ctrl;
#X obj 600 200 r ch1-feedback;
#X obj 600 230 s \$0-ch1-feedback;
#X obj 700 200 r fx-delay-time;
#X obj 700 230 s \$0-fx-delay-time;
#X obj 800 200 r ch3-chaos-rate;
#X obj 800 230 s \$0-ch3-chaos-rate;
#X obj 200 180 r \$0-ch1-feedback;
#X obj 200 100 r \$0-metro-trigger;
#X obj 300 100 r \$0-metro-trigger;
#X obj 400 100 r \$0-metro-trigger;
#X obj 500 100 r \$0-metro-trigger;
#X obj 900 50 metro 10;
#X obj 900 80 s \$0-metro-trigger;
#X obj 300 180 r \$0-ch2-feedback;
#X obj 400 180 r \$0-ch3-feedback;
#X obj 400 210 r \$0-ch3-chaos-rate;
#X obj 500 180 r \$0-ch4-feedback;
#X obj 600 380 r \$0-ch1-mute;
#X obj 650 380 r \$0-ch2-mute;
#X obj 700 380 r \$0-ch3-mute;
#X obj 750 380 r \$0-ch4-mute;
#X obj 600 420 r \$0-fx-delay-time;
#X obj 650 420 r \$0-fx-reverb-amount;
#X obj 700 420 r \$0-fx-bitcrush-amount;
#X obj 800 460 r record-trigger;
#X obj 900 460 r \$0-record-filename;
#X obj 1000 460 r \$0-record-length;
#X text 950 50 NEURAL FOOTWORK GENERATIVE SYSTEM;
#X text 950 70 ------------------------------------;
#X text 950 90 4-channel neural network system for;
#X text 950 110 ambient + 3 percussion voices with;
#X text 950 130 feedback, generative algorithms, and;
#X text 950 150 Digitakt integration via MIDI.;
#X obj 900 20 loadbang;
#X obj 200 250 throw~ ch1;
#X obj 300 250 throw~ ch2;
#X obj 400 250 throw~ ch3;
#X obj 500 250 throw~ ch4;
#X obj 200 350 catch~ ch1;
#X obj 250 350 catch~ ch2;
#X obj 300 350 catch~ ch3;
#X obj 350 350 catch~ ch4;
#X connect 0 0 1 0;
#X connect 1 0 2 0;
#X connect 4 0 47 0;
#X connect 5 0 48 0;
#X connect 6 0 49 0;
#X connect 7 0 50 0;
#X connect 8 0 9 0;
#X connect 8 1 9 1;
#X connect 9 0 10 0;
#X connect 9 1 10 1;
#X connect 10 0 11 0;
#X connect 10 0 11 1;
#X connect 13 0 14 0;
#X connect 15 0 16 0;
#X connect 17 0 18 0;
#X connect 19 0 4 1;
#X connect 20 0 4 0;
#X connect 21 0 5 0;
#X connect 22 0 6 0;
#X connect 23 0 7 0;
#X connect 24 0 25 0;
#X connect 26 0 5 1;
#X connect 27 0 6 1;
#X connect 28 0 6 4;
#X connect 29 0 7 1;
#X connect 30 0 8 4;
#X connect 31 0 8 5;
#X connect 32 0 8 6;
#X connect 33 0 8 7;
#X connect 34 0 9 2;
#X connect 35 0 9 3;
#X connect 36 0 9 4;
#X connect 37 0 10 2;
#X connect 38 0 10 4;
#X connect 39 0 10 3;
#X connect 46 0 24 0;
#X connect 51 0 8 0;
#X connect 52 0 8 1;
#X connect 53 0 8 2;
#X connect 54 0 8 3;