#N canvas 0 111 1200 700 10;
#X obj 67 43 inlet~ ch1;
#X obj 147 43 inlet~ ch2;
#X obj 227 43 inlet~ ch3;
#X obj 307 43 inlet~ ch4;
#X obj 50 600 outlet~ left;
#X obj 130 600 outlet~ right;
#X obj 50 150 *~;
#X obj 147 143 *~;
#X obj 227 143 *~;
#X obj 307 143 *~;
#X obj 67 93 hip~ 20;
#X obj 147 93 hip~ 20;
#X obj 227 93 hip~ 20;
#X obj 307 93 hip~ 20;
#X obj 50 250 *~;
#X obj 147 243 *~;
#X obj 227 243 *~;
#X obj 307 243 *~;
#X obj 400 14 inlet ch1_mute;
#X obj 496 14 inlet ch2_mute;
#X obj 593 10 inlet ch3_mute;
#X obj 715 11 inlet ch4_mute;
#X obj 400 150 tgl 15 0 empty empty AMBIENT 17 7 0 10 #fcfcfc #000000 #000000 0 1;
#X obj 480 150 tgl 15 0 empty empty HIHAT 17 7 0 10 #fcfcfc #000000 #000000 0 1;
#X obj 560 150 tgl 15 0 empty empty SNARE 17 7 0 10 #fcfcfc #000000 #000000 0 1;
#X obj 640 150 tgl 15 0 empty empty TOM 17 7 0 10 #fcfcfc #000000 #000000 0 1;
#X obj 400 180 == 0;
#X obj 480 180 == 0;
#X obj 560 180 == 0;
#X obj 640 180 == 0;
#X obj 400 210 change;
#X obj 480 210 change;
#X obj 560 210 change;
#X obj 640 210 change;
#X obj 67 193 vu~ 15 120;
#X obj 147 193 vu~ 15 120;
#X obj 227 193 vu~ 15 120;
#X obj 307 193 vu~ 15 120;
#X obj 375 89 r \$0-ch1-mute;
#X obj 470 79 r \$0-ch2-mute;
#X obj 595 70 r \$0-ch3-mute;
#X obj 739 81 r \$0-ch4-mute;
#X obj 389 45 s \$0-ch1-mute;
#X obj 480 47 s \$0-ch2-mute;
#X obj 579 51 s \$0-ch3-mute;
#X obj 702 43 s \$0-ch4-mute;
#X obj 67 283 s~ ambient-ch1-out~;  ; Renamed to avoid duplicate send names
#X obj 147 283 s~ hihat-ch2-out~;   ; Renamed to avoid duplicate send names
#X obj 227 283 s~ snare-ch3-out~;   ; Renamed to avoid duplicate send names
#X obj 307 283 s~ tom-ch4-out~;     ; Renamed to avoid duplicate send names
#X obj 360 250 s \$0-ch1-active;
#X obj 461 248 s \$0-ch2-active;
#X obj 560 250 s \$0-ch3-active;
#X obj 657 250 s \$0-ch4-active;
#X obj -50 10 loadbang;
#X msg -51 36 \; pd dsp 1 \; \$0-ch1-active 1 \; \$0-ch2-active 1 \; \$0-ch3-active 1 \; \$0-ch4-active 1;
#X obj 406 116 r \$0-ch1-active;
#X obj 516 99 r \$0-ch2-active;
#X obj 620 96 r \$0-ch3-active;
#X obj 741 116 r \$0-ch4-active;
#X obj 47 321 r~ ambient-ch1-out~;  ; Updated to match renamed send objects
#X obj 127 321 r~ hihat-ch2-out~;   ; Updated to match renamed send objects
#X obj 207 321 r~ snare-ch3-out~;   ; Updated to match renamed send objects
#X obj 287 321 r~ tom-ch4-out~;     ; Updated to match renamed send objects
#X obj 847 5 inlet mute_group1;
#X obj 966 5 inlet mute_group2;
#X obj 845 91 s \$0-mute-group1;
#X obj 847 34 s \$0-mute-group2;
#X obj 901 151 r \$0-mute-group1;
#X obj 764 146 r \$0-mute-group2;
#X obj 770 180 t b;
#X obj 850 180 t b;
#X msg 770 210 0 0 1 1;
#X msg 850 210 1 1 0 0;
#X obj 770 240 unpack f f f f;
#X obj 875 240 unpack f f f f;
#X obj 67 363 brainmix;
#X obj 67 413 throw~ left;
#X obj 147 413 throw~ right;
#X obj 50 560 catch~ left;
#X obj 130 560 catch~ right;
#X obj 370 330 r~ neural1~;
#X obj 450 330 r~ neural2~;
#X obj 530 330 r~ neural3~;
#X obj 610 330 r~ neural4~;
#X obj 328 446 s~ inhibit_ambient;
#X obj 350 370 threshold~ 0.8;
#X obj 370 400 *~ -0.4;
#X obj 444 370 threshold~ 0.8;
#X obj 450 400 *~ -0.3;
#X obj 538 370 threshold~ 0.8;
#X obj 530 400 *~ -0.5;
#X obj 635 367 threshold~ 0.8;
#X obj 610 400 *~ -0.2;
#X obj 443 444 s~ inhibit_hihat;
#X obj 546 444 s~ inhibit_snare;
#X obj 656 444 s~ inhibit_tom;
#X obj 681 279 s \$0-ch1-mute;
#X obj 774 277 s \$0-ch2-mute;
#X obj 869 277 s \$0-ch3-mute;
#X obj 978 284 s \$0-ch4-mute;
#X obj 707 314 s \$0-ch1-mute;
#X obj 799 317 s \$0-ch2-mute;
#X obj 893 313 s \$0-ch3-mute;
#X obj 984 314 s \$0-ch4-mute;
#X obj 1050 33 inlet preset;
#X obj 983 77 sel 1 2 3 4;
#X obj 877 125 s \$0-preset1;
#X obj 955 125 s \$0-preset2;
#X obj 1038 125 s \$0-preset3;
#X obj 1039 162 s \$0-preset4;
#X text 972 194 MIDI control interface;
#X text 970 233 for Digitakt channel mutes;
#X text 970 253 and mute groups;
#X connect 0 0 10 0;
#X connect 1 0 11 0;
#X connect 2 0 12 0;
#X connect 3 0 13 0;
#X connect 6 0 14 0;
#X connect 6 0 34 0;
#X connect 7 0 15 0;
#X connect 7 0 35 0;
#X connect 8 0 16 0;
#X connect 8 0 36 0;
#X connect 9 0 17 0;
#X connect 9 0 37 0;
#X connect 10 0 6 0;
#X connect 11 0 7 0;
#X connect 12 0 8 0;
#X connect 13 0 9 0;
#X connect 14 0 46 0;
#X connect 15 0 47 0;
#X connect 16 0 48 0;
#X connect 17 0 49 0;
#X connect 18 0 42 0;
#X connect 19 0 43 0;
#X connect 20 0 44 0;
#X connect 21 0 45 0;
#X connect 22 0 26 0;
#X connect 23 0 27 0;
#X connect 24 0 28 0;
#X connect 25 0 29 0;
#X connect 26 0 30 0;
#X connect 27 0 31 0;
#X connect 28 0 32 0;
#X connect 29 0 33 0;
#X connect 30 0 6 1;
#X connect 30 0 50 0;
#X connect 31 0 7 1;
#X connect 31 0 51 0;
#X connect 32 0 8 1;
#X connect 32 0 52 0;
#X connect 33 0 9 1;
#X connect 33 0 53 0;
#X connect 38 0 22 0;
#X connect 39 0 23 0;
#X connect 40 0 24 0;
#X connect 41 0 25 0;
#X connect 54 0 55 0;
#X connect 56 0 22 0;
#X connect 57 0 23 0;
#X connect 58 0 24 0;
#X connect 59 0 25 0;
#X connect 60 0 76 0;
#X connect 61 0 76 1;
#X connect 62 0 76 2;
#X connect 63 0 76 3;
#X connect 64 0 67 0;
#X connect 65 0 67 0;
#X connect 68 0 71 0;
#X connect 69 0 72 0;
#X connect 71 0 73 0;
#X connect 72 0 74 0;
#X connect 73 0 74 0;
#X connect 76 0 77 0;
#X connect 76 1 78 0;
#X connect 79 0 4 0;
#X connect 80 0 5 0;
#X connect 81 0 86 0;
#X connect 82 0 88 0;
#X connect 83 0 90 0;
#X connect 84 0 92 0;
#X connect 86 0 87 0;
#X connect 87 0 85 0;
#X connect 88 0 89 0;
#X connect 89 0 94 0;
#X connect 90 0 91 0;
#X connect 91 0 95 0;
#X connect 92 0 93 0;
#X connect 93 0 96 0;
#X connect 105 0 106 0;
