#N canvas 35 25 1200 700 10;
#X obj 84 33 inlet~ ch1;
#X obj 164 33 inlet~ ch2;
#X obj 244 33 inlet~ ch3;
#X obj 324 33 inlet~ ch4;
#X obj 50 580 outlet~ left;
#X obj 130 580 outlet~ right;
#X obj 84 133 *~;
#X obj 164 133 *~;
#X obj 244 133 *~;
#X obj 324 133 *~;
#X obj 84 93 hip~ 20;
#X obj 164 93 hip~ 20;
#X obj 244 93 hip~ 20;
#X obj 324 93 hip~ 20;
#X obj 50 240 *~;
#X obj 130 240 *~;
#X obj 210 240 *~;
#X obj 290 240 *~;
#X obj 450 40 inlet ch1_mute;
#X obj 556 41 inlet ch2_mute;
#X obj 663 42 inlet ch3_mute;
#X obj 774 42 inlet ch4_mute;
#X obj 400 140 tgl 15 0 empty empty AMBIENT 17 7 0 10 #fcfcfc #000000 #000000 0 1;
#X obj 480 140 tgl 15 0 empty empty HIHAT 17 7 0 10 #fcfcfc #000000 #000000 0 1;
#X obj 560 140 tgl 15 0 empty empty SNARE 17 7 0 10 #fcfcfc #000000 #000000 0 1;
#X obj 640 140 tgl 15 0 empty empty TOM 17 7 0 10 #fcfcfc #000000 #000000 0 1;
#X obj 400 179 == 0;
#X obj 480 179 == 0;
#X obj 560 179 == 0;
#X obj 640 179 == 0;
#X obj 400 219 change;
#X obj 480 219 change;
#X obj 560 219 change;
#X obj 640 219 change;
#X obj 50 320 +~;
#X obj 50 360 +~;
#X obj 50 420 *~ 0.5;
#X obj 130 420 *~ 0.5;
#X obj 50 500 hip~ 20;
#X obj 130 500 hip~ 20;
#X obj 50 200 vu~ 15 120;
#X obj 130 200 vu~ 15 120;
#X obj 210 200 vu~ 15 120;
#X obj 290 200 vu~ 15 120;
#X obj 391 94 r \$0-ch1-mute;
#X obj 504 105 r \$0-ch2-mute;
#X obj 614 104 r \$0-ch3-mute;
#X obj 1024 115 r \$0-ch4-mute;
#X obj 384 71 s \$0-ch1-mute;
#X obj 508 69 s \$0-ch2-mute;
#X obj 633 67 s \$0-ch3-mute;
#X obj 749 73 s \$0-ch4-mute;
#X text 871 21 MIDI control interface;
#X text 871 58 for Digitakt channel mutes;
#X obj 50 460 *~ 0.95;
#X obj 130 460 *~ 0.95;
#X obj 380 500 s ch1-out;
#X obj 450 500 s ch2-out;
#X obj 520 500 s ch3-out;
#X obj 590 500 s ch4-out;
#X obj 51 281 s~ mixer-ch1-out~;  ; Unique name to avoid duplicate send
#X obj 131 280 s~ mixer-ch2-out~; ; Unique name to avoid duplicate send
#X obj 209 280 s~ mixer-ch3-out~; ; Unique name to avoid duplicate send
#X obj 290 280 s~ mixer-ch4-out~; ; Unique name to avoid duplicate send
#X obj 427 334 s \$0-ch1-active;
#X obj 533 335 s \$0-ch2-active;
#X obj 633 334 s \$0-ch3-active;
#X obj 737 334 s \$0-ch4-active;
#X obj -50 10 loadbang;
#X msg -50 50 \; pd dsp 1 \; \$0-ch1-active 1 \; \$0-ch2-active 1 \; \$0-ch3-active 1 \; \$0-ch4-active 1;
#X obj 50 540 clip~ -0.95 0.95;
#X obj 156 540 clip~ -0.95 0.95;
#X obj 920 327 r \$0-ch1-active;
#X obj 910 241 r \$0-ch2-active;
#X obj 837 180 r \$0-ch3-active;
#X obj 762 140 r \$0-ch4-active;
#X obj 130 320 +~;
#X obj 130 360 +~;
#X connect 0 0 10 0;
#X connect 1 0 11 0;
#X connect 2 0 12 0;
#X connect 3 0 13 0;
#X connect 6 0 14 0;
#X connect 6 0 40 0;
#X connect 7 0 15 0;
#X connect 7 0 41 0;
#X connect 8 0 16 0;
#X connect 8 0 42 0;
#X connect 9 0 17 0;
#X connect 9 0 43 0;
#X connect 10 0 6 0;
#X connect 11 0 7 0;
#X connect 12 0 8 0;
#X connect 13 0 9 0;
#X connect 14 0 34 0;
#X connect 14 0 59 0;
#X connect 15 0 34 1;
#X connect 15 0 76 0;
#X connect 16 0 35 0;
#X connect 16 0 76 1;
#X connect 17 0 35 1;
#X connect 17 0 77 1;
#X connect 18 0 48 0;
#X connect 19 0 49 0;
#X connect 20 0 50 0;
#X connect 21 0 51 0;
#X connect 22 0 26 0;
#X connect 23 0 27 0;
#X connect 24 0 28 0;
#X connect 25 0 29 0;
#X connect 26 0 30 0;
#X connect 27 0 31 0;
#X connect 28 0 32 0;
#X connect 29 0 33 0;
#X connect 30 0 6 1;
#X connect 30 0 63 0;
#X connect 31 0 7 1;
#X connect 31 0 64 0;
#X connect 32 0 8 1;
#X connect 32 0 65 0;
#X connect 33 0 9 1;
#X connect 33 0 66 0;
#X connect 34 0 36 0;
#X connect 35 0 36 0;
#X connect 36 0 54 0;
#X connect 37 0 55 0;
#X connect 38 0 70 0;
#X connect 39 0 71 0;
#X connect 44 0 22 0;
#X connect 45 0 23 0;
#X connect 46 0 24 0;
#X connect 47 0 25 0;
#X connect 54 0 38 0;
#X connect 55 0 39 0;
#X connect 68 0 69 0;
#X connect 70 0 4 0;
#X connect 71 0 5 0;
#X connect 72 0 22 0;
#X connect 73 0 23 0;
#X connect 74 0 24 0;
#X connect 75 0 25 0;
#X connect 76 0 77 0;
#X connect 77 0 37 0;
