#N canvas 324 349 850 600 10;
#X obj 100 20 inlet~ left;
#X obj 180 20 inlet~ right;
#X obj 100 550 outlet~ left;
#X obj 180 550 outlet~ right;
#X obj 271 20 inlet~ neural;
#X obj 100 70 *~ 0.8;
#X obj 180 70 *~ 0.8;
#X obj 23 100 delwrite~ \$0-del-l 2000;
#X obj 169 92 delwrite~ \$0-del-r 2000;
#X obj 260 70 abs~;
#X obj 290 111 *~ 1500;
#X obj 260 130 snapshot~; ; Convert signal to control value
#X obj 260 150 + 50;
#X obj 260 170 clip 50 1500;
#X obj 260 190 sig~;
#X obj 260 220 lop~ 5;
#X obj 16 165 delread~ \$0-del-l 500;
#X obj 111 136 delread~ \$0-del-r 500;
#X obj 100 190 *~ 0.6;
#X obj 180 190 *~ 0.6;
#X obj 234 248 s~ \$0-neural-delay;
#X obj 20 46 r~ \$0-neural-delay;
#X obj 100 220 +~;
#X obj 180 220 +~;
#X obj 398 20 inlet freeze;
#X obj 340 70 sel 1;
#X obj 340 100 s \$0-freeze;
#X obj 420 100 s \$0-unfreeze;
#X obj 360 130 r \$0-freeze;
#X msg 360 160 freeze;
#X obj 360 190 s \$0-del-l;
#X obj 450 130 r \$0-unfreeze;
#X msg 450 160 unfreeze;
#X obj 450 190 s \$0-del-l;
#X obj 360 220 r \$0-freeze;
#X msg 360 250 freeze;
#X obj 360 280 s \$0-del-r;
#X obj 450 220 r \$0-unfreeze;
#X msg 450 250 unfreeze;
#X obj 450 280 s \$0-del-r;
#X obj 600 20 inlet size;
#X obj 600 50 / 127;
#X obj 600 80 * 0.9;
#X obj 600 110 + 0.1;
#X obj 600 140 s \$0-size;
#X obj 100 280 *~;
#X obj 180 280 *~;
#X obj 100 310 hip~ 20;
#X obj 180 310 hip~ 20;
#X obj 100 340 lop~ 18000;
#X obj 180 340 lop~ 18000;
#X obj 600 170 r \$0-size;
#X obj 540 200 *~ 1;
#X obj 600 200 *~ 1;
#X obj 100 370 *~ 0.9;
#X obj 180 370 *~ 0.9;
#X obj 100 400 +~;
#X obj 180 400 +~;
#X obj 100 430 +~;
#X obj 180 430 +~;
#X obj 100 460 *~ 0.95;
#X obj 180 460 *~ 0.95;
#X obj 100 490 hip~ 20;
#X obj 180 490 hip~ 20;
#X obj 100 250 freeverb~;
#X obj 100 520 clip~ -0.95 0.95;
#X obj 207 519 clip~ -0.95 0.95;
#X text 540 250 Neural reverb with:;
#X text 540 270 - Neural modulated delay times;
#X text 540 290 - Freeze buffer function;
#X text 540 310 - Multiple feedback stages;
#X obj 540 170 r~ neural1~;
#X obj 70 30 loadbang;
#X obj 70 60 metro 20;  ; Trigger for snapshot~ object
#X connect 0 0 5 0;
#X connect 1 0 6 0;
#X connect 4 0 9 0;
#X connect 5 0 7 0;
#X connect 5 0 63 0;
#X connect 6 0 8 0;
#X connect 6 0 63 1;
#X connect 9 0 10 0;
#X connect 10 0 11 0;
#X connect 11 0 12 0;
#X connect 12 0 13 0;
#X connect 13 0 14 0;
#X connect 14 0 15 0;
#X connect 15 0 16 0;
#X connect 15 0 17 0;
#X connect 16 0 18 0;
#X connect 71 0 72 0;
#X connect 72 0 12 0;
#X connect 17 0 21 1;
#X connect 18 0 22 1;
#X connect 20 0 15 0;
#X connect 20 0 16 0;
#X connect 21 0 63 0;
#X connect 22 0 63 1;
#X connect 23 0 24 0;
#X connect 24 0 25 0;
#X connect 24 1 26 0;
#X connect 27 0 28 0;
#X connect 28 0 29 0;
#X connect 30 0 31 0;
#X connect 31 0 32 0;
#X connect 33 0 34 0;
#X connect 34 0 35 0;
#X connect 36 0 37 0;
#X connect 37 0 38 0;
#X connect 39 0 40 0;
#X connect 40 0 41 0;
#X connect 41 0 42 0;
#X connect 42 0 43 0;
#X connect 44 0 46 0;
#X connect 45 0 47 0;
#X connect 46 0 48 0;
#X connect 47 0 49 0;
#X connect 48 0 53 0;
#X connect 49 0 54 0;
#X connect 50 0 51 1;
#X connect 50 0 52 1;
#X connect 51 0 44 1;
#X connect 52 0 45 1;
#X connect 53 0 55 0;
#X connect 54 0 56 0;
#X connect 55 0 57 0;
#X connect 56 0 58 0;
#X connect 57 0 59 0;
#X connect 58 0 60 0;
#X connect 59 0 61 0;
#X connect 60 0 62 0;
#X connect 61 0 64 0;
#X connect 62 0 65 0;
#X connect 63 0 44 0;
#X connect 63 1 45 0;
#X connect 64 0 2 0;
#X connect 65 0 3 0;
#X connect 70 0 51 0;
