#N canvas 121 25 1200 700 10;
#X declare -path ./abstractions;
#X obj 100 50 loadbang;
#X obj 100 80 delay 100;
#X msg 100 110 \; pd dsp 1;
#X obj 600 50 declare -path ./abstractions;
#X obj 200 520 dac~;
#X obj 100 480 hip~ 20;
#X obj 180 480 hip~ 20;
#X obj 100 450 clip~ -0.95 0.95;
#X obj 209 450 clip~ -0.95 0.95;
#X obj 100 420 *~ 0.9;
#X obj 180 420 *~ 0.9;
#X text 780 50 NEURAL FOOTWORK v2.0;
#X text 780 70 Advanced Generative System;
#X text 780 90 ---------------------------;
#X text 780 110 Neural network sound generator;
#X text 780 130 with Digitakt integration;
#X text 780 150 generative algorithms;
#X text 780 170 emergent behavior patterns.;
#X obj 847 350 s \$0-metro-trigger;
#X obj 800 320 metro 10;
#X obj 800 290 loadbang;
#X obj 520 5 brain;
#X obj 200 170 ambient_v2;
#X obj 300 170 hihat_v2;
#X obj 400 170 snare_v2;
#X obj 500 170 tom_v2;
#X obj 200 230 throw~ nf-ch1; ; Renamed with namespace prefix to avoid conflicts
#X obj 300 230 throw~ nf-ch2; ; Renamed with namespace prefix to avoid conflicts
#X obj 400 230 throw~ nf-ch3; ; Renamed with namespace prefix to avoid conflicts
#X obj 500 230 throw~ nf-ch4; ; Renamed with namespace prefix to avoid conflicts
#X obj 115 268 catch~ nf-ch1; ; Updated to match throw~ names
#X obj 201 265 catch~ nf-ch2; ; Updated to match throw~ names
#X obj 280 263 catch~ nf-ch3; ; Updated to match throw~ names
#X obj 350 280 catch~ nf-ch4; ; Updated to match throw~ names
#X obj 200 310 neural_mixer_enhanced;
#X obj 200 350 gen_fx;
#X obj 600 170 midi_proxy;
#X obj 590 244 r ambient-fb;
#X obj 600 290 s \$0-ambient-fb;
#X obj 685 251 r delay-time;
#X obj 701 293 s \$0-delay-time;
#X obj 770 255 r chaos-rate;
#X obj 757 273 s \$0-chaos-rate;
#X obj 879 259 r plasticity-amt;
#X obj 891 287 s \$0-plasticity-amt;
#X obj 550 350 r fractal-mode;
#X obj 504 394 s \$0-fractal-mode;
#X obj 642 350 r randomize-all;
#X obj 614 412 s \$0-randomize-all;
#X obj 739 351 r freeze-buffers;
#X obj 708 379 s \$0-freeze-buffers;
#X obj 617 200 s \$0-midi-input;
#X obj 600 110 r \$0-midi-input;
#X obj 204 200 s~ neural1~;
#X obj 302 199 s~ neural2~;
#X obj 409 200 s~ neural3~;
#X obj 503 200 s~ neural4~;
#X obj 332 365 r~ neural1~;
#X obj 399 312 r~ neural2~;
#X obj 417 334 r~ neural3~;
#X obj 463 353 r~ neural4~;
#X obj 600 440 r \$0-randomize-all;
#X obj 425 487 s \$0-brain-randomize;
#X obj 655 464 r \$0-freeze-buffers;
#X obj 571 543 s \$0-fx-freeze;
#X obj 556 623 r \$0-delay-time;
#X obj 615 581 s \$0-fx-delay;
#X obj 200 380 export_rack;
#X obj 844 378 loadbang;
#X msg 820 410 export_sample;
#X obj 854 440 s \$0-export-name;
#X obj 750 200 r ch1-mute;
#X obj 710 227 s \$0-ch1-mute;
#X obj 829 196 r ch2-mute;
#X obj 800 230 s \$0-ch2-mute;
#X obj 913 189 r ch3-mute;
#X obj 898 231 s \$0-ch3-mute;
#X obj 1032 192 r ch4-mute;
#X obj 992 227 s \$0-ch4-mute;
#X obj 747 621 r recorder-trig;
#X obj 724 498 s \$0-record-trig;
#X obj 886 597 r \$0-export-name;
#X obj 793 543 s \$0-filename;
#X obj 975 442 loadbang;
#X msg 850 470 30000;
#X obj 850 500 s \$0-record-length;
#X obj 600 320 r \$0-metro-trigger;
#X obj 198 56 r \$0-metro-trigger;
#X obj 339 57 r \$0-metro-trigger;
#X obj 410 89 r \$0-metro-trigger;
#X obj 476 130 r \$0-metro-trigger;
#X connect 0 0 1 0;
#X connect 1 0 2 0;
#X connect 5 0 4 0;
#X connect 6 0 4 1;
#X connect 7 0 5 0;
#X connect 8 0 6 0;
#X connect 9 0 7 0;
#X connect 10 0 8 0;
#X connect 19 0 18 0;
#X connect 20 0 19 0;
#X connect 21 0 22 4;
#X connect 21 1 23 4;
#X connect 21 2 24 4;
#X connect 21 3 25 4;
#X connect 22 0 26 0;
#X connect 22 0 53 0;
#X connect 23 0 27 0;
#X connect 23 0 54 0;
#X connect 24 0 28 0;
#X connect 24 0 55 0;
#X connect 25 0 29 0;
#X connect 25 0 56 0;
#X connect 30 0 34 0;
#X connect 31 0 34 1;
#X connect 32 0 34 2;
#X connect 33 0 34 3;
#X connect 34 0 35 0;
#X connect 34 1 35 1;
#X connect 35 0 67 0;
#X connect 35 0 9 0;
#X connect 35 1 67 1;
#X connect 35 1 10 0;
#X connect 36 0 51 0;
#X connect 37 0 38 0;
#X connect 39 0 40 0;
#X connect 41 0 42 0;
#X connect 43 0 44 0;
#X connect 45 0 46 0;
#X connect 47 0 48 0;
#X connect 49 0 50 0;
#X connect 52 0 36 0;
#X connect 57 0 35 2;
#X connect 58 0 35 3;
#X connect 59 0 35 4;
#X connect 60 0 35 5;
#X connect 61 0 62 0;
#X connect 63 0 64 0;
#X connect 65 0 66 0;
#X connect 69 0 70 0;
#X connect 71 0 72 0;
#X connect 73 0 74 0;
#X connect 75 0 76 0;
#X connect 77 0 78 0;
#X connect 79 0 80 0;
#X connect 81 0 82 0;
#X connect 84 0 22 0;
#X connect 84 0 23 0;
#X connect 84 0 24 0;
#X connect 84 0 25 0;
#X connect 86 0 23 0;
#X connect 87 0 24 0;
#X connect 88 0 25 0;
