#N canvas 730 552 850 500 10;
#X obj 100 20 inlet~ ch1;
#X obj 180 20 inlet~ ch2;
#X obj 260 20 inlet~ ch3;
#X obj 340 20 inlet~ ch4;
#X obj 100 450 outlet~ ch1;
#X obj 180 450 outlet~ ch2;
#X obj 260 450 outlet~ ch3;
#X obj 340 450 outlet~ ch4;
#X obj 420 20 inlet plasticity;
#X obj 100 80 abs~;
#X obj 180 80 abs~;
#X obj 260 80 abs~;
#X obj 340 80 abs~;
#X obj 100 110 >~ 0.5;
#X obj 180 110 >~ 0.5;
#X obj 260 110 >~ 0.5;
#X obj 340 110 >~ 0.5;
#X obj 100 140 *~ 0.01;
#X obj 180 140 *~ 0.01;
#X obj 260 140 *~ 0.01;
#X obj 340 140 *~ 0.01;
#X obj 100 170 +~ 0.001;
#X obj 180 170 +~ 0.001;
#X obj 260 170 +~ 0.001;
#X obj 340 170 +~ 0.001;
#X obj 420 50 / 127;
#X obj 420 80 * 0.1;
#X obj 420 110 s \$0-plasticity-rate;
#X obj 100 200 lop~ 0.1;
#X obj 180 200 lop~ 0.1;
#X obj 260 200 lop~ 0.1;
#X obj 340 200 lop~ 0.1;
#X obj 100 230 *~ 0.5;
#X obj 180 230 *~ 0.5;
#X obj 260 230 *~ 0.5;
#X obj 340 230 *~ 0.5;
#X obj 531 12 inlet randomize;
#X obj 642 11 inlet range;
#X obj 500 50 t b;
#X obj 580 50 / 127;
#X obj 580 80 * 0.5;
#X obj 580 110 + 0.01;
#X obj 580 140 s \$0-plasticity-range;
#X obj 500 80 random 100;
#X obj 500 110 / 100;
#X obj 500 140 * 0.5;
#X obj 500 170 - 0.25;
#X obj 500 200 s \$0-plasticity-random;
#X obj 100 320 r \$0-plasticity-random;
#X obj 252 316 r \$0-plasticity-random;
#X obj 411 303 r \$0-plasticity-random;
#X obj 564 305 r \$0-plasticity-random;
#X obj 100 350 *~;
#X obj 180 350 *~;
#X obj 260 350 *~;
#X obj 340 350 *~;
#X obj 100 260 phasor~ 0.1;
#X obj 180 260 phasor~ 0.2;
#X obj 260 260 phasor~ 0.3;
#X obj 340 260 phasor~ 0.4;
#X obj 100 290 *~;
#X obj 180 290 *~;
#X obj 260 290 *~;
#X obj 340 290 *~;
#X obj 500 230 r \$0-plasticity-range;
#X obj 100 380 *~;
#X obj 180 380 *~;
#X obj 260 380 *~;
#X obj 340 380 *~;
#X obj 100 410 *~ 0.5;
#X obj 180 410 *~ 0.5;
#X obj 260 410 *~ 0.5;
#X obj 340 410 *~ 0.5;
#X obj 500 260 s \$0-range;
#X text 646 395 Neural plasticity module;
#X text 646 415 that modulates connections based;
#X text 646 435 on activity levels and generates;
#X text 646 455 emergent behavior patterns;
#X connect 0 0 9 0;
#X connect 1 0 10 0;
#X connect 2 0 11 0;
#X connect 3 0 12 0;
#X connect 8 0 25 0;
#X connect 9 0 13 0;
#X connect 10 0 14 0;
#X connect 11 0 15 0;
#X connect 12 0 16 0;
#X connect 13 0 17 0;
#X connect 14 0 18 0;
#X connect 15 0 19 0;
#X connect 16 0 20 0;
#X connect 17 0 21 0;
#X connect 18 0 22 0;
#X connect 19 0 23 0;
#X connect 20 0 24 0;
#X connect 21 0 28 0;
#X connect 22 0 29 0;
#X connect 23 0 30 0;
#X connect 24 0 31 0;
#X connect 25 0 26 0;
#X connect 26 0 27 0;
#X connect 28 0 32 0;
#X connect 29 0 33 0;
#X connect 30 0 34 0;
#X connect 31 0 35 0;
#X connect 32 0 57 0;
#X connect 33 0 58 0;
#X connect 34 0 59 0;
#X connect 35 0 60 0;
#X connect 36 0 38 0;
#X connect 37 0 39 0;
#X connect 38 0 43 0;
#X connect 39 0 40 0;
#X connect 40 0 41 0;
#X connect 41 0 42 0;
#X connect 43 0 44 0;
#X connect 44 0 45 0;
#X connect 45 0 46 0;
#X connect 46 0 47 0;
#X connect 48 0 52 1;
#X connect 49 0 53 1;
#X connect 50 0 54 1;
#X connect 51 0 55 1;
#X connect 52 0 65 0;
#X connect 53 0 66 0;
#X connect 54 0 67 0;
#X connect 55 0 68 0;
#X connect 56 0 61 0;
#X connect 57 0 61 1;
#X connect 58 0 62 1;
#X connect 59 0 63 1;
#X connect 61 0 52 0;
#X connect 62 0 53 0;
#X connect 63 0 54 0;
#X connect 64 0 55 0;
#X connect 65 0 69 0;
#X connect 66 0 70 0;
#X connect 67 0 71 0;
#X connect 68 0 72 0;
#X connect 69 0 4 0;
#X connect 70 0 5 0;
#X connect 71 0 6 0;
#X connect 72 0 7 0;
