#N canvas 0 22 850 600 10;
#X obj 100 20 inlet;
#X obj 100 550 outlet~;
#X obj 100 520 s~ snare-ch3-out~;  ; Send to other instruments for cross-feedback
#X obj 180 20 inlet feedback_gain;
#X obj 260 20 inlet steps;
#X obj 340 20 inlet fills;
#X obj 420 20 inlet~ neural;
#X obj 100 80 t b b;
#X obj 180 50 / 127;
#X obj 180 80 * 0.9;
#X obj 180 110 s \$0-feedback-gain;
#X obj 260 50 s \$0-euclid-steps;
#X obj 340 50 s \$0-euclid-fills;
#X obj 100 140 dna_rhythms;
#X obj 100 170 t b;
#X obj 100 200 logistic_map;
#X obj 100 230 *~ 0.8;
#X obj 100 260 +~ 0.1;
#X obj 170 230 safe_noise; ; Using safe noise abstraction to prevent bang errors
#X obj 170 260 lop~ 3000;
#X obj 170 290 bp~ 800 5;
#X obj 170 320 *~ 0.6;
#X obj 100 350 +~;
#X obj 100 380 *~ 0.8;
#X obj 100 410 clip~ -0.6 0.6;
#X obj 100 440 neuron_inhib;
#X obj 150 470 r \$0-feedback-gain;
#X obj 220 470 r \$0-threshold-value;
#X obj 420 50 *~ 0.8;
#X obj 420 80 clip~ -0.8 0.8;
#X obj 420 110 *~ 0.3;
#X obj 420 140 +~ 0.5;
#X obj 420 170 *~;
#X obj 500 170 r \$0-dna-mutation;
#X obj 420 200 s~ \$0-density;
#X obj 500 20 inlet fractal;
#X obj 500 50 sel 1;
#X obj 500 80 s \$0-fractal-mode;
#X obj 500 110 r \$0-fractal-mode;
#X obj 580 20 inlet dna_mutation;
#X obj 580 50 / 127;
#X obj 580 80 * 100;
#X obj 580 110 s \$0-dna-mutation;
#X obj 450 350 r~ \$0-density;
#X obj 450 380 *~ 0.6;
#X obj 450 410 +~ 0.3;
#X obj 400 350 r~ inhibit_snare;  ; Receives from neural_mixer_enhanced (mixer sends this signal)
#X obj 400 380 *~ 0.5;
#X obj 400 410 *~ -1;
#X obj 400 440 +~ 1;
#X obj 400 470 *~;
#X obj 400 500 s~ \$0-gate;
#X obj 150 410 r~ \$0-gate;
#X obj 150 440 *~ 0.9;
#X obj 260 80 r \$0-dna-mutation;
#X obj 260 110 s \$0-mutation-rate;
#X obj 300 140 r \$0-mutation-rate;
#X obj 340 80 r \$0-euclid-steps;
#X obj 340 110 s \$0-pattern-length;
#X obj 380 140 r \$0-pattern-length;
#X obj 250 260 r~ ch2-out~;
#X obj 300 260 r~ ch1-out~;
#X obj 250 290 *~ 0.2;
#X obj 300 290 *~ 0.3;
#X obj 250 320 s~ feedback2~;
#X obj 300 320 s~ feedback1~;
#X obj 500 200 r \$0-chaos-rate;
#X obj 500 230 / 127;
#X obj 500 260 * 0.4;
#X obj 500 290 + 3.5;
#X obj 500 320 s \$0-rate;
#X obj 160 170 r \$0-rate;
#X obj 220 230 s \$0-trig-active;
#X text 620 140 Advanced snare generator;
#X text 620 160 with DNA-based sequencer,;
#X text 620 180 chaotic noise source,;
#X text 620 200 and neural inhinition control;
#X connect 0 0 6 0;
#X connect 2 0 7 0;
#X connect 3 0 10 0;
#X connect 4 0 11 0;
#X connect 5 0 27 0;
#X connect 6 0 12 0;
#X connect 6 1 73 0;
#X connect 7 0 8 0;
#X connect 8 0 9 0;
#X connect 12 0 13 0;
#X connect 13 0 14 0;
; ---- Fix noise~ trigger ----
#X connect 13 0 19 0; ; Connect trigger directly to safe_noise (fixed)
#X connect 14 0 15 0;
#X connect 15 0 16 0;
#X connect 16 0 21 0;
#X connect 17 0 18 0;
#X connect 18 0 19 0;
#X connect 19 0 20 0;
#X connect 20 0 21 1;
#X connect 21 0 22 0;
#X connect 22 0 23 0;
#X connect 23 0 24 0;
#X connect 24 0 1 0;
#X connect 24 0 3 0;  ; Connect to the send object too
#X connect 25 0 24 2;
#X connect 26 0 24 3;
#X connect 27 0 28 0;
#X connect 28 0 29 0;
#X connect 29 0 30 0;
#X connect 30 0 31 0;
#X connect 31 0 33 0;
#X connect 32 0 31 1;
#X connect 34 0 35 0;
#X connect 35 0 36 0;
#X connect 37 0 12 1;
#X connect 38 0 39 0;
#X connect 39 0 40 0;
#X connect 40 0 41 0;
#X connect 42 0 43 0;
#X connect 43 0 44 0;
#X connect 44 0 12 2;
#X connect 45 0 46 0;
#X connect 46 0 47 0;
#X connect 47 0 48 0;
#X connect 48 0 49 0;
#X connect 49 0 50 0;
#X connect 51 0 52 0;
#X connect 52 0 24 1;
#X connect 53 0 54 0;
#X connect 55 0 12 1;
#X connect 56 0 57 0;
#X connect 58 0 12 2;
#X connect 59 0 61 0;
#X connect 60 0 62 0;
#X connect 61 0 63 0;
#X connect 62 0 64 0;
#X connect 65 0 66 0;
#X connect 66 0 67 0;
#X connect 67 0 68 0;
#X connect 68 0 69 0;
#X connect 70 0 14 1;