#N canvas 0 22 850 600 10;
#X obj 100 50 inlet;
#X obj 100 500 outlet~;
#X obj 400 50 inlet feedback_gain;
#X obj 480 50 inlet steps;
#X obj 560 50 inlet fills;
#X obj 100 100 t b b;
#X obj 130 130 euclid 16 3;
#X obj 100 200 spigot;
#X obj 130 230 tgl 15 0 empty empty empty 17 7 0 10 -262144 -1 -1 0 1;
#X obj 130 170 == 0;
#X obj 100 290 noise~;
#X obj 100 320 lop~ 4000;
#X obj 100 350 *~ 0.7;
#X obj 100 380 clip~ -0.6 0.6;
#X obj 400 100 / 127;
#X obj 400 130 * 0.95;
#X obj 400 160 s \$0-feedback-gain;
#X obj 480 100 s \$0-euclid-steps;
#X obj 560 100 s \$0-euclid-fills;
#X obj 640 50 inlet threshold_ctrl;
#X obj 640 100 / 127;
#X obj 640 130 * 0.7;
#X obj 640 160 + 0.2;
#X obj 640 190 s \$0-threshold-value;
#X obj 100 410 neuron;
#X obj 150 440 r \$0-feedback-gain;
#X obj 200 440 r \$0-threshold-value;
#X obj 400 250 r~ ch2-out~;
#X obj 480 250 r~ ch1-out~;
#X text 700 50 Snare generator with;
#X text 700 70 Euclidean rhythm and neural control;
#X obj 180 100 metro 40;
#X obj 250 50 inlet tempo;
#X obj 250 100 / 127;
#X obj 250 130 * 200;
#X obj 250 160 + 20;
#X obj 250 190 s \$0-tempo;
#X obj 180 130 r \$0-tempo;
#X obj 720 50 inlet chaos_rate;
#X obj 720 100 / 127;
#X obj 720 130 * 0.4;
#X obj 720 160 + 3.5;
#X obj 720 190 s \$0-chaos-rate;
#X obj 100 260 logistic_map;
#X obj 100 230 r \$0-chaos-rate;
#X connect 0 0 5 0;
#X connect 2 0 14 0;
#X connect 3 0 17 0;
#X connect 4 0 18 0;
#X connect 5 0 7 0;
#X connect 5 1 6 0;
#X connect 6 0 9 0;
#X connect 7 0 44 0;
#X connect 8 0 7 1;
#X connect 9 0 8 0;
#X connect 10 0 11 0;
#X connect 11 0 12 0;
#X connect 12 0 13 0;
#X connect 13 0 24 0;
#X connect 14 0 15 0;
#X connect 15 0 16 0;
#X connect 19 0 20 0;
#X connect 20 0 21 0;
#X connect 21 0 22 0;
#X connect 22 0 23 0;
#X connect 24 0 1 0;
#X connect 25 0 24 2;
#X connect 26 0 24 3;
#X connect 27 0 24 0;
#X connect 28 0 24 1;
#X connect 31 0 5 0;
#X connect 32 0 33 0;
#X connect 33 0 34 0;
#X connect 34 0 35 0;
#X connect 35 0 36 0;
#X connect 37 0 31 1;
#X connect 38 0 39 0;
#X connect 39 0 40 0;
#X connect 40 0 41 0;
#X connect 41 0 42 0;
#X connect 43 0 10 0;
#X connect 44 0 43 0;