#N canvas 200 200 500 400 10;
#X obj 50 50 loadbang;
#X obj 50 80 delay 100;
#X obj 50 110 t b b;
#X obj 50 140 audio_config;
#X obj 50 170 delay 500;
#X obj 50 200 neural_footwork_v2;
#X text 200 50 Neural Footwork Launcher;
#X text 200 80 -----------------------;
#X text 200 110 This patch handles proper audio setup;
#X text 200 130 before loading the main system.;
#X text 200 160 Helps avoid PortAudio errors.;
#X text 50 20 NEURAL FOOTWORK - LAUNCHER;
#X text 50 250 Steps:;
#X text 50 280 1. Set up audio config (driver, buffer size);
#X text 50 300 2. Initialize DSP and wait for audio system;
#X text 50 320 3. Load main neural_footwork_v2 patch;
#X text 50 350 Troubleshooting: See audio_config.pd for adjustments;
#X connect 0 0 1 0;
#X connect 1 0 2 0;
#X connect 2 0 3 0;
#X connect 2 1 4 0;
#X connect 4 0 5 0;