#N canvas 759 452 850 600 10;
#X obj 100 20 inlet~ ch1;
#X obj 180 20 inlet~ ch2;
#X obj 260 20 inlet~ ch3;
#X obj 340 20 inlet~ ch4;
#X obj 100 550 outlet~ ch1;
#X obj 180 550 outlet~ ch2;
#X obj 260 550 outlet~ ch3;
#X obj 340 550 outlet~ ch4;
#X obj 100 70 *~ 1;
#X obj 180 70 *~ 1;
#X obj 260 70 *~ 1;
#X obj 340 70 *~ 1;
#X obj 100 100 s~ synapse-in1~;
#X obj 180 100 s~ synapse-in2~;
#X obj 260 100 s~ synapse-in3~;
#X obj 340 100 s~ synapse-in4~;
#X obj 68 171 r~ synapse-in1~;
#X obj 180 170 r~ synapse-in2~;
#X obj 290 169 r~ synapse-in3~;
#X obj 402 168 r~ synapse-in4~;
#X obj 100 200 *~ 0.5;
#X obj 180 200 *~ 0.5;
#X obj 260 200 *~ 0.5;
#X obj 340 200 *~ 0.5;
#X obj 37 269 *~ 0.2;
#X obj 87 269 *~ 0.1;
#X obj 137 269 *~ 0.3;
#X obj 187 269 *~ 0.05;
#X obj 237 269 *~ 0.2;
#X obj 287 269 *~ 0.1;
#X obj 337 269 *~ 0.3;
#X obj 387 269 *~ 0.15;
#X obj 437 269 *~ 0.25;
#X obj 487 269 *~ 0.05;
#X obj 537 269 *~ 0.35;
#X obj 587 269 *~ 0.15;
#X obj 637 269 *~ 0.3;
#X obj 100 300 +~;
#X obj 150 300 +~;
#X obj 200 300 +~;
#X obj 250 300 +~;
#X obj 300 300 +~;
#X obj 350 300 +~;
#X obj 400 300 +~;
#X obj 450 300 +~;
#X obj 500 300 +~;
#X obj 550 300 +~;
#X obj 600 300 +~;
#X obj 650 300 +~;
#X obj 100 350 *~ 0.3;
#X obj 150 350 *~ 0.7;
#X obj 200 350 *~ 0.2;
#X obj 250 350 *~ 0.8;
#X obj 300 350 *~ 0.4;
#X obj 350 350 *~ 0.6;
#X obj 400 350 *~ 0.1;
#X obj 450 350 *~ 0.9;
#X obj 100 400 +~;
#X obj 200 400 +~;
#X obj 300 400 +~;
#X obj 400 400 +~;
#X obj 100 450 *~ 0.6;
#X obj 200 450 *~ 0.5;
#X obj 300 450 *~ 0.7;
#X obj 400 450 *~ 0.4;
#X obj 100 500 +~;
#X obj 200 500 +~;
#X obj 100 520 *~ 0.9;
#X obj 200 520 *~ 0.9;
#X obj 300 520 *~ 0.9;
#X obj 400 520 *~ 0.9;
#X obj 500 20 inlet weight_matrix;
#X obj 500 50 unpack f f f f f f f f f f f f f f f f;
#X obj 500 80 s \$0-w11;
#X obj 535 80 s \$0-w12;
#X obj 570 80 s \$0-w13;
#X obj 605 80 s \$0-w14;
#X obj 640 80 s \$0-w21;
#X obj 675 80 s \$0-w22;
#X obj 710 80 s \$0-w23;
#X obj 745 80 s \$0-w24;
#X obj 463 108 s \$0-w31;
#X obj 518 110 s \$0-w32;
#X obj 570 110 s \$0-w33;
#X obj 605 110 s \$0-w34;
#X obj 640 110 s \$0-w41;
#X obj 675 110 s \$0-w42;
#X obj 710 110 s \$0-w43;
#X obj 745 110 s \$0-w44;
#X obj 100 230 r \$0-w11;
#X obj 150 230 r \$0-w21;
#X obj 200 230 r \$0-w31;
#X obj 250 230 r \$0-w41;
#X obj 300 230 r \$0-w12;
#X obj 350 230 r \$0-w22;
#X obj 400 230 r \$0-w32;
#X obj 450 230 r \$0-w42;
#X obj 500 230 r \$0-w13;
#X obj 550 230 r \$0-w23;
#X obj 600 230 r \$0-w33;
#X obj 650 230 r \$0-w43;
#X obj 700 230 r \$0-w14;
#X obj 750 230 r \$0-w24;
#X obj 800 230 r \$0-w34;
#X obj 850 230 r \$0-w44;
#X obj 636 20 inlet randomize;
#X obj 600 50 t b;
#X obj 600 80 s \$0-randomize;
#X obj 100 130 r \$0-randomize;
#X obj 100 150 t b b b b b b b b b b b b b b b b;
#X obj 600 110 random 100;
#X obj 600 140 / 100;
#X obj 600 170 * 0.8;
#X obj 600 200 + 0.1;
#X text 650 140 Synaptic connection matrix;
#X text 650 160 with programmable weights and;
#X text 650 180 randomization features;
#X connect 0 0 8 0;
#X connect 1 0 9 0;
#X connect 2 0 10 0;
#X connect 3 0 11 0;
#X connect 8 0 12 0;
#X connect 9 0 13 0;
#X connect 10 0 14 0;
#X connect 11 0 15 0;
#X connect 16 0 20 0;
#X connect 17 0 21 0;
#X connect 18 0 22 0;
#X connect 19 0 23 0;
#X connect 20 0 24 0;
#X connect 20 0 25 0;
#X connect 20 0 26 0;
#X connect 20 0 27 0;
#X connect 21 0 28 0;
#X connect 21 0 29 0;
#X connect 21 0 30 0;
#X connect 21 0 31 0;
#X connect 22 0 32 0;
#X connect 22 0 33 0;
#X connect 22 0 34 0;
#X connect 22 0 35 0;
#X connect 23 0 36 0;
#X connect 24 0 37 0;
#X connect 25 0 38 0;
#X connect 26 0 39 0;
#X connect 27 0 40 0;
#X connect 28 0 41 0;
#X connect 29 0 42 0;
#X connect 30 0 43 0;
#X connect 31 0 44 0;
#X connect 32 0 45 0;
#X connect 33 0 46 0;
#X connect 34 0 47 0;
#X connect 35 0 48 0;
#X connect 37 0 49 0;
#X connect 38 0 50 0;
#X connect 39 0 51 0;
#X connect 40 0 52 0;
#X connect 41 0 53 0;
#X connect 42 0 54 0;
#X connect 43 0 55 0;
#X connect 44 0 56 0;
#X connect 49 0 57 0;
#X connect 50 0 57 1;
#X connect 51 0 58 0;
#X connect 52 0 58 1;
#X connect 53 0 59 0;
#X connect 54 0 59 1;
#X connect 55 0 60 0;
#X connect 56 0 60 1;
#X connect 57 0 61 0;
#X connect 58 0 62 0;
#X connect 59 0 63 0;
#X connect 60 0 64 0;
#X connect 61 0 65 0;
#X connect 62 0 66 0;
#X connect 65 0 67 0;
#X connect 66 0 68 0;
#X connect 67 0 4 0;
#X connect 68 0 5 0;
#X connect 69 0 6 0;
#X connect 70 0 7 0;
#X connect 71 0 72 0;
#X connect 72 0 73 0;
#X connect 72 1 74 0;
#X connect 72 2 75 0;
#X connect 72 3 76 0;
#X connect 72 4 77 0;
#X connect 72 5 78 0;
#X connect 72 6 79 0;
#X connect 72 7 80 0;
#X connect 72 8 81 0;
#X connect 72 9 82 0;
#X connect 72 10 83 0;
#X connect 72 11 84 0;
#X connect 72 12 85 0;
#X connect 72 13 86 0;
#X connect 72 14 87 0;
#X connect 72 15 88 0;
#X connect 89 0 24 1;
#X connect 90 0 25 1;
#X connect 91 0 26 1;
#X connect 92 0 27 1;
#X connect 93 0 28 1;
#X connect 94 0 29 1;
#X connect 95 0 30 1;
#X connect 96 0 31 1;
#X connect 97 0 32 1;
#X connect 98 0 33 1;
#X connect 99 0 34 1;
#X connect 100 0 35 1;
#X connect 101 0 36 1;
#X connect 102 0 36 1;
#X connect 103 0 36 1;
#X connect 104 0 36 1;
#X connect 105 0 106 0;
#X connect 106 0 107 0;
#X connect 108 0 109 0;
#X connect 109 0 110 0;
#X connect 109 1 110 0;
#X connect 109 2 110 0;
#X connect 109 3 110 0;
#X connect 109 4 110 0;
#X connect 109 5 110 0;
#X connect 109 6 110 0;
#X connect 109 7 110 0;
#X connect 109 8 110 0;
#X connect 109 9 110 0;
#X connect 109 10 110 0;
#X connect 109 11 110 0;
#X connect 109 12 110 0;
#X connect 109 13 110 0;
#X connect 109 14 110 0;
#X connect 109 15 110 0;
#X connect 110 0 111 0;
#X connect 111 0 112 0;
#X connect 112 0 113 0;
#X connect 113 0 73 0;
#X connect 113 0 74 0;
#X connect 113 0 75 0;
#X connect 113 0 76 0;
#X connect 113 0 77 0;
#X connect 113 0 78 0;
#X connect 113 0 79 0;
#X connect 113 0 80 0;
#X connect 113 0 81 0;
#X connect 113 0 82 0;
#X connect 113 0 83 0;
#X connect 113 0 84 0;
#X connect 113 0 85 0;
#X connect 113 0 86 0;
#X connect 113 0 87 0;
#X connect 113 0 88 0;
